<?xml version="1.0" standalone="no"?>
<!DOCTYPE svg PUBLIC "-//W3C//DTD SVG 20010904//EN"
 "http://www.w3.org/TR/2001/REC-SVG-20010904/DTD/svg10.dtd">
<svg version="1.0" xmlns="http://www.w3.org/2000/svg"
 width="1024.000000pt" height="1024.000000pt" viewBox="0 0 1024.000000 1024.000000"
 preserveAspectRatio="xMidYMid meet">
<metadata>
Created by potrace 1.11, written by Peter Selinger 2001-2013
</metadata>
<g transform="translate(0.000000,1024.000000) scale(0.100000,-0.100000)"
fill="#000000" stroke="none">
<path d="M645 10200 c-6 -37 -9 -40 -40 -40 -24 0 -35 -5 -38 -17 -4 -17 -5
-17 -6 0 -3 40 -34 4 -51 -60 -5 -21 -15 -59 -22 -85 -7 -27 -16 -48 -20 -48
-5 0 -8 -6 -9 -12 0 -7 -10 -27 -22 -44 -12 -17 -44 -63 -70 -103 -27 -39 -53
-71 -58 -71 -5 0 -9 -5 -9 -12 0 -6 -22 -36 -50 -67 -82 -91 -90 -101 -90
-108 0 -3 -16 -23 -35 -44 -19 -22 -35 -44 -35 -50 0 -5 -4 -7 -10 -4 -5 3
-10 -1 -10 -9 0 -17 -53 -49 -64 -39 -3 4 -6 -44 -6 -105 0 -121 7 -131 45
-70 11 18 25 39 30 48 6 8 28 44 49 80 51 83 99 154 109 158 4 2 7 10 7 18 0
8 3 14 8 14 4 0 18 20 32 45 14 25 28 45 32 45 5 0 8 5 8 11 0 5 21 29 46 52
25 23 52 55 59 72 8 16 39 57 69 89 31 33 58 68 62 78 3 10 10 18 15 18 5 0 9
7 9 15 0 8 3 15 8 15 4 0 18 24 32 53 14 28 27 54 30 57 3 3 16 22 30 42 14
21 28 38 33 38 4 0 7 5 7 10 0 6 9 19 20 30 31 31 24 40 -34 40 l-54 0 -7 -40z"/>
<path d="M850 10200 c0 -29 4 -40 15 -40 8 0 15 -4 15 -9 0 -5 -7 -11 -15 -15
-9 -3 -15 -18 -15 -35 0 -22 -4 -29 -14 -25 -10 4 -12 -4 -9 -35 3 -26 1 -41
-6 -41 -6 0 -11 -6 -11 -12 0 -7 -9 -42 -19 -78 -70 -233 -121 -525 -121 -700
0 -36 -5 -94 -10 -130 -16 -108 -24 -1043 -11 -1335 6 -143 13 -329 16 -412 3
-84 9 -214 15 -289 5 -75 13 -250 16 -390 4 -140 11 -254 16 -254 4 0 8 -51 8
-113 0 -63 7 -158 15 -213 8 -54 21 -166 29 -249 9 -82 20 -181 26 -220 19
-121 32 -207 47 -295 7 -47 16 -101 19 -120 3 -19 9 -36 14 -38 6 -2 10 -12
10 -23 0 -25 29 -69 45 -69 14 0 26 87 46 328 9 104 9 170 1 245 -6 56 -11
124 -11 152 0 27 -5 51 -11 53 -5 2 -10 32 -10 68 0 52 -3 62 -15 58 -10 -4
-15 0 -15 14 0 11 -5 22 -11 24 -8 3 -12 46 -12 138 0 74 -2 127 -4 118 -3
-10 -8 -18 -12 -18 -11 0 -24 134 -16 158 3 11 -3 28 -15 42 -22 25 -29 115
-10 122 12 4 -5 149 -19 158 -5 3 -14 61 -20 130 -7 69 -17 172 -23 230 -6 58
-13 146 -17 195 -4 57 -13 102 -25 124 -15 27 -15 35 -5 42 10 6 13 31 12 86
-12 672 -17 1120 -11 1213 21 346 28 429 37 470 5 25 17 90 26 145 18 107 43
214 135 590 32 132 61 252 64 268 l6 27 -70 0 -70 0 0 -40z m37 -4272 c-3 -8
-6 -5 -6 6 -1 11 2 17 5 13 3 -3 4 -12 1 -19z"/>
<path d="M2520 10229 c0 -5 5 -7 10 -4 6 3 10 8 10 11 0 2 -4 4 -10 4 -5 0
-10 -5 -10 -11z"/>
<path d="M7520 10228 c0 -12 17 -68 31 -103 5 -13 8 3 8 48 1 61 -1 67 -19 67
-11 0 -20 -5 -20 -12z"/>
<path d="M7936 10178 c-16 -35 -32 -74 -36 -88 -4 -14 -18 -59 -30 -100 -22
-74 -31 -98 -64 -173 -9 -21 -16 -44 -16 -52 0 -7 -6 -20 -13 -27 -7 -7 -22
-31 -34 -53 -11 -22 -46 -87 -78 -145 -58 -104 -110 -203 -131 -251 -17 -36
-77 -143 -84 -149 -3 -3 -30 -54 -59 -115 -30 -60 -66 -128 -80 -150 -15 -22
-46 -78 -71 -125 -89 -174 -236 -334 -467 -512 -29 -22 -53 -44 -53 -49 0 -5
-7 -9 -15 -9 -8 0 -15 -4 -15 -10 0 -5 -5 -10 -11 -10 -5 0 -34 -11 -62 -25
-29 -13 -88 -38 -132 -55 -44 -17 -99 -43 -123 -56 -63 -37 -73 -24 -16 22 27
21 51 41 54 44 3 3 21 17 40 30 19 13 40 29 47 35 159 135 204 187 340 393 53
81 100 149 103 152 26 20 145 214 205 336 15 28 34 60 44 71 10 10 24 35 30
55 7 20 16 38 20 40 10 4 135 261 152 313 8 22 24 60 36 84 25 49 28 61 13 61
-5 0 -10 -8 -10 -17 -1 -10 -10 -34 -20 -53 -11 -19 -26 -48 -35 -65 l-16 -30
6 40 5 40 -16 -40 c-22 -56 -113 -235 -135 -267 -11 -14 -19 -31 -19 -36 0 -6
-6 -17 -12 -24 -7 -7 -20 -26 -28 -43 -30 -59 -204 -331 -247 -384 -12 -16 -9
14 8 74 37 128 62 320 63 480 1 163 -11 218 -31 142 -16 -59 -31 -176 -39
-287 -6 -97 -29 -264 -38 -279 -3 -4 -12 -43 -21 -87 -30 -145 -171 -408 -273
-509 -11 -11 -50 -49 -87 -85 -36 -36 -61 -66 -56 -68 15 -5 -11 -30 -44 -42
-14 -5 -28 -17 -32 -27 -8 -21 -40 -53 -53 -53 -5 0 -10 -4 -10 -8 0 -5 -11
-15 -25 -22 -14 -7 -25 -19 -25 -27 0 -7 -9 -13 -20 -13 -11 0 -23 -7 -26 -15
-4 -8 -12 -15 -19 -15 -7 0 -15 -4 -17 -8 -1 -4 -21 -19 -43 -32 -29 -18 -35
-26 -22 -28 20 -4 23 -18 5 -25 -9 -4 -8 -6 3 -6 8 -1 37 10 65 22 27 13 81
34 119 46 39 13 102 36 140 52 39 15 84 31 100 35 17 4 43 13 58 21 16 8 31
12 34 9 5 -4 -60 -182 -91 -251 -41 -90 -64 -155 -56 -155 6 0 10 -5 10 -11 0
-6 -7 -9 -15 -5 -8 3 -15 1 -15 -5 0 -6 -16 -36 -35 -68 -39 -62 -70 -162 -53
-172 5 -4 -1 -21 -15 -43 -16 -23 -27 -32 -31 -24 -3 7 -3 1 0 -13 3 -15 1
-30 -5 -33 -6 -4 -11 -16 -11 -27 0 -10 -6 -19 -13 -19 -7 0 -17 -10 -22 -22
-6 -13 -14 -22 -20 -22 -18 2 -36 -34 -29 -61 4 -15 2 -25 -5 -25 -6 0 -11 5
-11 11 0 5 -5 7 -11 3 -6 -3 -9 -14 -6 -24 3 -12 0 -17 -8 -14 -7 3 -13 -1
-12 -8 1 -32 -4 -49 -13 -43 -5 3 -10 -2 -10 -13 0 -11 -8 -30 -19 -43 -18
-24 -45 -71 -77 -138 -8 -19 -27 -49 -40 -66 -13 -18 -24 -36 -24 -41 0 -5 -9
-15 -20 -22 -11 -7 -20 -20 -20 -29 0 -9 -11 -31 -25 -49 -14 -18 -25 -39 -25
-46 0 -8 -10 -25 -22 -38 -12 -12 -23 -37 -25 -53 -2 -17 -11 -36 -21 -43 -10
-7 -24 -31 -31 -53 -6 -23 -16 -41 -20 -41 -5 0 -14 -14 -21 -31 -7 -17 -18
-36 -24 -43 -40 -44 -57 -79 -51 -107 7 -33 12 -35 34 -14 9 8 32 28 53 45 31
26 36 28 31 10 -3 -11 -12 -20 -19 -20 -8 0 -14 -7 -14 -15 0 -14 3 -13 25 2
13 10 25 24 25 31 0 6 4 12 8 12 11 0 69 49 140 118 l54 53 -7 -43 c-4 -24
-19 -71 -32 -106 -14 -35 -23 -65 -20 -69 3 -3 9 6 13 21 3 14 10 26 15 26 5
0 9 10 9 23 0 12 3 17 8 11 18 -27 82 -25 82 2 0 8 5 13 12 11 6 -1 21 16 32
38 12 21 28 47 36 57 9 9 33 52 55 95 22 43 64 114 93 158 30 44 58 89 63 100
5 11 18 34 29 50 11 17 25 41 32 55 7 14 26 43 43 65 16 22 39 60 50 85 11 25
22 47 25 50 3 3 13 21 22 40 10 19 29 55 44 80 14 25 43 77 65 115 22 39 44
77 49 85 68 119 175 355 190 420 7 30 19 70 26 89 17 41 34 140 27 159 -7 16
-39 -34 -63 -98 -31 -82 -149 -327 -172 -357 -5 -6 -24 -40 -42 -75 -67 -130
-119 -223 -126 -228 -4 -3 -13 -16 -21 -31 -30 -53 -54 -89 -62 -89 -13 0 3
86 45 235 22 77 43 158 47 180 5 22 13 58 19 80 30 107 72 328 75 397 3 75 4
78 43 113 21 21 66 55 99 78 33 22 65 46 71 51 7 6 36 31 65 56 84 72 144 136
210 226 25 33 62 81 82 106 20 25 37 48 37 52 0 4 15 31 33 59 101 157 134
220 302 582 7 17 45 94 84 172 38 78 77 162 85 187 9 25 20 55 26 66 5 11 15
29 20 40 6 11 10 27 10 36 0 18 41 97 53 102 4 2 7 14 7 27 0 13 4 26 9 29 22
14 75 230 62 254 -5 8 -18 -10 -35 -50z m-1816 -3862 c0 -3 -4 -8 -10 -11 -5
-3 -10 -1 -10 4 0 6 5 11 10 11 6 0 10 -2 10 -4z m-275 -85 c-3 -6 -11 -8 -17
-5 -6 4 -5 9 3 15 16 10 23 4 14 -10z"/>
<path d="M9890 10231 c0 -28 13 -41 36 -35 18 5 26 1 31 -12 3 -11 11 -22 16
-25 5 -4 5 -15 -2 -27 -14 -26 -14 -79 -1 -87 6 -4 10 10 10 34 0 23 5 41 10
41 13 0 13 -117 0 -122 -18 -6 11 -78 32 -78 10 0 24 -11 30 -25 6 -14 15 -25
20 -25 4 0 8 -7 8 -15 0 -12 13 -15 60 -15 l60 0 0 115 c0 102 -2 118 -20 137
-17 19 -20 19 -20 5 0 -13 -9 -17 -40 -17 l-40 0 0 40 0 40 40 0 c69 0 43 17
-37 25 -91 8 -123 19 -123 40 0 24 -38 18 -43 -7 l-4 -23 -2 23 c-1 20 -21 33
-21 13z"/>
<path d="M70 10174 c-10 -12 -8 -14 14 -14 28 0 35 14 12 23 -8 3 -20 -1 -26
-9z"/>
<path d="M4032 10168 c-7 -7 -12 -17 -12 -24 0 -7 -3 -14 -7 -16 -10 -4 -74
-130 -73 -144 0 -6 -7 -17 -15 -24 -8 -7 -26 -36 -40 -65 -13 -29 -28 -55 -33
-57 -9 -4 -62 -128 -62 -145 0 -7 -7 -13 -15 -13 -8 0 -15 -8 -15 -17 0 -20
-32 -108 -43 -119 -4 -4 -7 -14 -7 -23 0 -9 -13 -41 -30 -71 -16 -30 -29 -63
-30 -72 0 -10 -4 -18 -10 -18 -5 0 -10 -8 -10 -19 0 -10 -7 -24 -15 -31 -8 -7
-15 -18 -15 -24 0 -7 -18 -54 -39 -104 -22 -51 -45 -109 -51 -129 -25 -84 -72
-193 -82 -193 -5 0 -8 5 -8 10 0 6 -6 10 -14 10 -8 0 -16 7 -20 15 -8 21 -26
19 -26 -4 0 -13 9 -21 29 -26 47 -10 47 -16 7 -195 -58 -255 -98 -429 -107
-458 -16 -50 -29 -153 -39 -297 -4 -71 -13 -150 -19 -175 -6 -25 -13 -58 -16
-73 -6 -32 -25 -27 -23 6 0 12 -9 110 -22 217 -23 199 -23 214 -4 553 5 85 4
117 -5 117 -6 0 -11 17 -11 40 0 22 -4 40 -10 40 -14 0 -13 -77 1 -82 8 -3 8
-31 1 -103 -14 -130 -24 -350 -24 -545 -1 -141 2 -164 27 -255 24 -82 29 -124
32 -237 3 -95 1 -138 -7 -138 -6 0 -13 7 -17 16 -3 8 -11 13 -18 11 -17 -7
-28 16 -63 123 -17 52 -42 125 -56 162 -29 78 -33 152 -18 283 18 154 21 205
11 205 -5 0 -9 52 -9 118 0 106 2 119 20 132 27 20 25 30 -6 30 -21 0 -24 -4
-19 -20 4 -11 2 -20 -4 -20 -7 0 -11 -45 -11 -133 0 -73 -4 -137 -9 -143 -5
-5 -11 -18 -14 -29 -2 -11 -4 63 -3 165 1 215 -7 318 -29 359 -11 23 -15 59
-13 148 1 65 3 99 5 76 6 -58 33 -60 33 -3 l0 40 91 0 92 0 -5 -52 c-3 -29 -3
-47 -1 -40 3 6 11 12 19 12 10 0 14 13 14 43 0 34 6 48 30 70 17 16 30 35 30
42 0 7 6 18 14 24 11 10 11 17 0 51 -11 32 -12 63 -4 151 5 60 12 114 15 119
3 5 12 50 19 102 8 51 18 102 22 113 4 13 4 17 -3 10 -25 -26 -76 -267 -68
-322 3 -25 4 -61 0 -81 -6 -37 -6 -37 -50 -34 -30 3 -45 9 -45 18 0 10 -12 14
-40 14 l-40 0 0 90 c0 53 4 90 10 90 15 0 12 58 -2 63 -20 6 -14 223 6 262 9
17 16 36 16 43 0 6 5 12 10 12 6 0 10 17 10 38 0 32 30 107 49 122 3 3 12 28
20 55 24 89 25 98 10 93 -17 -5 -78 -104 -85 -138 -3 -14 -11 -36 -19 -50 -34
-58 -56 -111 -50 -120 3 -5 -8 -28 -26 -50 -32 -40 -59 -101 -85 -197 -8 -29
-24 -74 -35 -100 -11 -27 -31 -86 -44 -133 -28 -98 -51 -168 -65 -192 -6 -10
-10 -36 -10 -58 0 -27 -5 -43 -15 -46 -11 -4 -15 -21 -15 -55 l0 -49 39 0 c39
0 40 -1 44 -37 2 -21 3 -11 2 22 -1 33 0 50 2 38 4 -23 28 -32 35 -13 2 6 2
-27 0 -72 -2 -78 -31 -215 -40 -189 -8 25 -28 9 -29 -25 -1 -19 -6 -47 -11
-62 -6 -15 -14 -40 -18 -57 l-7 -30 -7 25 c-5 14 -8 19 -9 13 -1 -8 -16 -13
-42 -13 l-42 0 5 -52 5 -52 -19 37 c-22 45 -33 46 -52 8 -18 -34 -37 -175 -25
-179 12 -5 11 -82 -1 -82 -5 0 -10 8 -11 18 -1 19 -27 -54 -28 -80 -1 -10 6
-18 14 -18 9 0 15 -9 15 -22 0 -18 -2 -20 -10 -8 -13 22 -22 7 -25 -45 -2 -26
-10 -54 -18 -63 -30 -35 -41 -247 -27 -493 7 -123 14 -339 16 -479 3 -431 40
-759 120 -1088 19 -79 37 -163 41 -188 3 -24 10 -47 14 -50 5 -3 9 -18 9 -33
0 -15 4 -31 8 -36 5 -6 15 -37 22 -70 7 -33 21 -78 31 -99 11 -22 19 -46 19
-53 0 -7 4 -21 9 -31 5 -9 14 -28 19 -42 11 -25 11 -25 11 7 1 17 -3 35 -9 38
-5 3 -10 18 -10 33 0 15 -7 36 -15 46 -8 11 -15 32 -15 48 0 15 -4 28 -9 28
-4 0 -9 28 -9 62 -1 39 2 57 8 48 6 -10 9 -6 12 16 l4 29 7 -30 c4 -16 14 -50
22 -75 16 -49 15 -33 -8 92 -15 86 -27 110 -28 57 0 -19 -4 -43 -9 -54 -6 -13
-8 11 -8 70 0 69 3 82 9 55 5 -25 6 -18 2 25 -3 33 -9 62 -14 65 -4 3 -13 30
-18 60 -25 133 -30 159 -42 201 -7 24 -13 73 -14 109 -1 36 -7 101 -14 145
-32 206 -44 366 -31 401 7 16 22 74 35 129 52 218 82 310 138 420 22 43 27 53
48 100 16 35 29 51 87 113 23 26 42 43 42 39 0 -4 -14 -34 -30 -67 -84 -165
-137 -599 -95 -765 25 -100 51 -137 88 -127 17 4 18 1 12 -41 -4 -25 -3 -52 1
-59 5 -7 9 -19 10 -26 4 -24 88 -142 101 -142 7 0 13 -6 13 -13 0 -15 46 -44
55 -35 3 3 1 18 -5 33 -6 15 -10 44 -9 64 1 31 -8 58 -51 156 -5 11 -14 40
-20 64 -11 41 -10 46 12 66 32 29 65 47 108 56 57 12 102 26 152 45 47 18 72
14 50 -8 -6 -6 -8 -18 -3 -27 5 -9 11 -31 15 -50 15 -81 90 -141 174 -141 52
0 153 34 166 56 6 10 25 52 41 93 19 47 37 77 48 79 17 3 66 -27 67 -40 0 -7
40 -47 73 -73 6 -5 29 -16 50 -23 32 -11 39 -11 52 2 8 8 15 18 15 22 0 4 11
17 25 30 16 15 25 18 25 9 0 -8 7 -11 20 -8 25 7 25 -6 4 -84 -9 -32 -19 -75
-24 -95 -18 -92 -109 -219 -203 -284 l-28 -19 37 -17 c35 -16 36 -16 31 4 -7
26 2 48 19 48 8 0 17 7 20 15 9 21 32 19 39 -5 3 -11 13 -20 21 -20 8 0 13 4
10 9 -10 16 6 42 31 52 16 6 23 15 20 24 -4 9 -1 12 9 8 9 -3 14 1 14 14 0 11
9 28 20 38 11 10 20 24 20 32 0 7 5 13 10 13 6 0 16 12 23 28 16 36 58 83 68
76 5 -3 9 4 9 15 0 14 6 21 20 21 14 0 22 11 31 40 7 21 15 38 18 36 3 -2 6
29 6 70 -1 51 3 74 11 74 6 0 15 7 18 16 10 25 7 114 -4 114 -5 0 -13 12 -16
26 -7 26 -8 26 -58 18 -93 -16 -197 -10 -242 13 -47 25 -130 118 -140 157 -5
20 -9 25 -18 16 -8 -8 -7 -13 4 -20 8 -5 11 -10 5 -10 -30 0 -59 50 -51 88 4
15 7 46 8 70 1 37 4 42 25 42 12 0 23 -5 23 -11 0 -8 5 -8 15 1 10 9 15 32 15
77 0 101 31 143 104 143 51 0 60 22 42 112 -8 40 -17 93 -20 117 -4 24 -15 68
-26 99 -11 31 -20 76 -20 100 0 23 -5 48 -10 55 -50 59 -51 61 -45 98 4 20 1
56 -6 80 -6 24 -11 72 -10 107 2 44 -4 75 -17 105 -11 23 -28 69 -37 102 -10
33 -21 62 -25 65 -11 8 -49 170 -56 241 -3 35 -7 69 -7 74 -1 6 8 9 19 7 15
-2 23 4 27 18 4 16 13 20 51 20 35 0 48 -4 53 -17 4 -9 1 -19 -5 -21 -17 -5
-15 -22 3 -22 8 0 15 5 15 11 0 7 10 9 25 7 29 -6 33 11 13 55 -9 18 -21 27
-37 27 -38 0 -120 43 -121 63 0 11 -8 17 -24 17 -25 0 -26 4 -42 205 -6 72 17
270 36 305 12 22 13 80 3 80 -9 0 -43 -78 -43 -98 0 -6 -4 -12 -9 -12 -5 0
-11 -14 -15 -31 -3 -17 -10 -28 -16 -24 -15 9 -12 44 5 62 9 8 19 28 22 44 3
16 9 29 14 29 4 0 14 18 20 40 7 22 15 40 19 40 4 0 10 18 14 40 3 22 11 40
16 40 6 0 10 10 10 22 0 11 14 50 30 85 17 34 30 70 30 78 0 8 5 15 10 15 6 0
10 9 10 20 0 11 4 20 8 20 11 0 42 66 42 90 0 11 9 29 20 40 26 26 67 153 51
158 -15 5 -14 29 2 35 6 2 9 7 6 10 -3 4 -11 1 -17 -5z m-26 -105 c-18 -33
-21 -26 -6 13 6 15 13 24 16 21 3 -3 -1 -18 -10 -34z m-886 -293 c0 -5 -5 -10
-11 -10 -5 0 -7 5 -4 10 3 6 8 10 11 10 2 0 4 -4 4 -10z m-90 -370 c0 -22 -4
-40 -10 -40 -5 0 -10 18 -10 40 0 22 5 40 10 40 6 0 10 -18 10 -40z m-8 -121
c6 -4 7 -36 3 -83 -6 -58 -11 -76 -22 -76 -12 0 -14 7 -7 38 5 20 9 66 8 102
0 36 2 56 4 45 2 -11 9 -23 14 -26z m684 1 c12 0 13 -4 2 -22 l-12 -23 -7 25
-7 25 -1 -24 c-1 -13 -4 -22 -7 -18 -4 3 -3 19 1 34 4 15 10 22 12 16 3 -7 11
-13 19 -13z m-706 -72 c0 -5 -4 -8 -10 -8 -5 0 -10 10 -10 23 0 18 2 19 10 7
5 -8 10 -18 10 -22z m671 5 c0 -15 2 -15 9 2 6 13 9 15 9 5 0 -8 -3 -21 -8
-28 -7 -11 -12 -12 -29 -1 -16 10 -18 16 -10 26 15 18 28 16 29 -4z m-31 -73
c0 -11 -4 -20 -10 -20 -5 0 -10 9 -10 20 0 11 5 20 10 20 6 0 10 -9 10 -20z
m-33 -57 c-3 -10 -5 -4 -5 12 0 17 2 24 5 18 2 -7 2 -21 0 -30z m33 -496 c0
-14 73 -366 85 -412 14 -50 45 -191 45 -203 0 -6 -85 10 -90 17 -3 4 -27 14
-55 24 -170 56 -182 70 -151 182 7 28 20 66 29 85 17 39 57 169 57 187 0 16
63 123 72 123 4 0 8 -1 8 -3z m-940 -357 c0 -5 -2 -10 -4 -10 -3 0 -8 5 -11
10 -3 6 -1 10 4 10 6 0 11 -4 11 -10z m635 -148 c-8 -38 -35 -65 -35 -35 0 11
5 35 11 52 14 41 34 26 24 -17z m-495 -30 c0 -15 9 -68 20 -118 25 -115 26
-170 3 -178 -22 -7 -50 -25 -77 -49 -32 -28 -41 -16 -38 49 4 89 42 256 63
279 5 5 9 17 9 27 0 10 5 18 10 18 6 0 10 -13 10 -28z m1087 -74 c-3 -8 -6 -5
-6 6 -1 11 2 17 5 13 3 -3 4 -12 1 -19z m-1360 -160 c-3 -8 -6 -5 -6 6 -1 11
2 17 5 13 3 -3 4 -12 1 -19z m123 -2119 c0 -10 -4 -19 -10 -19 -5 0 -10 12
-10 26 0 14 4 23 10 19 6 -3 10 -15 10 -26z m0 -200 c0 -11 -4 -17 -10 -14 -5
3 -10 13 -10 21 0 8 5 14 10 14 6 0 10 -9 10 -21z"/>
<path d="M0 10110 c0 -20 5 -30 15 -30 8 0 15 5 15 10 0 6 11 16 25 22 37 17
31 28 -15 28 -38 0 -40 -2 -40 -30z"/>
<path d="M2495 10090 c-3 -5 -1 -10 4 -10 6 0 11 5 11 10 0 6 -2 10 -4 10 -3
0 -8 -4 -11 -10z"/>
<path d="M7516 10077 c3 -10 9 -15 12 -12 3 3 0 11 -7 18 -10 9 -11 8 -5 -6z"/>
<path d="M2481 10044 c0 -11 3 -14 6 -6 3 7 2 16 -1 19 -3 4 -6 -2 -5 -13z"/>
<path d="M5567 10053 c-17 -4 -147 -252 -147 -280 0 -7 -4 -13 -10 -13 -5 0
-10 -4 -10 -10 0 -21 -174 -379 -189 -390 -4 -3 -13 -21 -21 -40 -8 -19 -36
-73 -63 -120 -27 -47 -58 -99 -67 -116 -10 -17 -37 -62 -59 -99 -23 -37 -41
-69 -41 -72 0 -3 -12 -19 -26 -36 -14 -16 -43 -64 -64 -106 -21 -42 -47 -85
-59 -95 -21 -19 -21 -19 -21 10 0 16 14 76 31 134 66 226 86 300 80 300 -12 0
-57 -112 -101 -250 -23 -74 -55 -165 -71 -203 -16 -37 -29 -74 -29 -81 0 -8
-13 -21 -30 -30 -16 -8 -30 -10 -30 -5 0 5 -9 9 -20 9 -17 0 -20 -7 -20 -45 0
-50 -5 -53 -49 -28 -16 10 -33 14 -38 10 -4 -5 1 -13 11 -19 41 -23 96 -81 96
-101 0 -26 -60 -189 -101 -272 -28 -59 -28 -61 -14 -110 13 -40 13 -60 4 -105
-6 -30 -15 -63 -20 -72 -5 -10 -9 -31 -9 -47 0 -17 -5 -33 -11 -36 -6 -4 -8
-13 -5 -21 3 -8 -3 -22 -13 -31 -11 -10 -31 -60 -45 -113 -13 -53 -34 -116
-44 -141 -18 -42 -18 -46 -3 -60 19 -16 41 -62 41 -85 0 -11 -4 -12 -19 -4
-26 13 -27 13 -28 -10 -1 -11 3 -18 8 -14 6 3 18 -2 27 -13 9 -10 24 -19 33
-21 17 -2 39 36 40 71 0 12 6 40 13 62 l12 40 23 -39 c24 -39 169 -190 250
-262 37 -32 43 -35 37 -17 -10 30 17 21 32 -10 l11 -22 0 22 c1 12 -3 24 -8
27 -5 3 -14 28 -21 56 -7 27 -16 50 -21 50 -5 0 -9 21 -10 48 0 53 -10 85 -24
80 -6 -2 -11 13 -13 32 -3 39 -3 40 -60 160 -24 51 -57 101 -81 125 -44 42
-52 76 -30 132 6 15 15 59 19 98 6 54 13 73 29 84 12 7 21 20 21 28 0 13 3 13
15 3 25 -21 30 -2 7 23 -29 31 -28 61 5 116 30 51 103 152 117 163 13 9 66
-22 74 -42 3 -8 25 -42 49 -75 43 -59 44 -60 87 -57 l43 4 -2 56 c-2 52 -12
87 -37 135 -5 10 -18 36 -29 57 -11 20 -29 46 -39 55 -11 10 -20 26 -20 36 0
10 -4 21 -10 24 -5 3 -10 13 -10 22 0 19 51 127 62 131 4 2 8 7 8 11 0 4 27
57 61 117 97 173 167 305 305 574 26 52 51 97 54 100 4 3 14 25 24 49 10 25
25 56 35 70 10 14 37 63 61 109 23 45 46 82 50 82 5 0 11 -44 15 -97 4 -54 26
-258 51 -454 24 -195 49 -434 54 -530 6 -96 15 -194 20 -219 18 -90 17 -926
-1 -932 -6 -2 -11 -67 -12 -165 -1 -88 -5 -159 -8 -157 -7 4 -18 -40 -25 -103
-4 -27 0 -52 10 -70 11 -21 15 -23 16 -10 0 10 5 15 10 12 7 -4 9 2 7 17 -2
12 -2 17 0 11 3 -7 11 -13 19 -13 14 0 20 34 15 87 -1 12 3 24 9 28 6 3 10 48
10 106 0 59 4 99 10 99 6 0 10 30 11 68 1 116 15 246 28 250 6 2 11 26 11 58
0 29 5 109 11 176 8 89 7 193 0 373 -7 138 -16 353 -21 479 -5 126 -14 274
-20 330 -6 55 -17 171 -25 256 -14 155 -41 352 -69 491 -8 41 -18 93 -21 117
-4 23 -11 42 -16 42 -5 0 -9 8 -9 18 0 20 -19 43 -34 41 -6 -1 -19 -3 -29 -6z
m-1087 -2413 c0 -10 -6 -25 -13 -32 -8 -7 -12 -19 -9 -27 4 -11 6 -11 13 0 6
10 9 4 9 -18 0 -25 -4 -31 -15 -27 -8 4 -15 2 -15 -4 0 -6 4 -12 10 -14 6 -2
6 -8 0 -18 -8 -13 -10 -12 -10 3 0 25 -18 21 -23 -5 -3 -18 -5 -16 -6 8 0 16
3 34 7 40 5 5 14 35 21 67 12 53 31 70 31 27z m-43 -232 c-3 -7 -5 -2 -5 12 0
14 2 19 5 13 2 -7 2 -19 0 -25z m-16 -55 c-12 -20 -14 -14 -5 12 4 9 9 14 11
11 3 -2 0 -13 -6 -23z m1266 -225 c-3 -8 -6 -5 -6 6 -1 11 2 17 5 13 3 -3 4
-12 1 -19z m-17 -63 c0 -14 -4 -25 -10 -25 -11 0 -14 33 -3 43 11 11 13 8 13
-18z"/>
<path d="M7533 10005 c0 -22 2 -30 4 -17 2 12 2 30 0 40 -3 9 -5 -1 -4 -23z"/>
<path d="M2460 9989 c0 -5 5 -7 10 -4 6 3 10 8 10 11 0 2 -4 4 -10 4 -5 0 -10
-5 -10 -11z"/>
<path d="M7511 9984 c0 -11 3 -14 6 -6 3 7 2 16 -1 19 -3 4 -6 -2 -5 -13z"/>
<path d="M3181 9952 c-14 -27 -12 -35 8 -23 7 5 11 17 9 27 -4 17 -5 17 -17
-4z"/>
<path d="M7522 9930 c0 -14 2 -19 5 -12 2 6 2 18 0 25 -3 6 -5 1 -5 -13z"/>
<path d="M7382 9640 c0 -14 2 -19 5 -12 2 6 2 18 0 25 -3 6 -5 1 -5 -13z"/>
<path d="M3106 9541 c-4 -7 -5 -15 -2 -18 9 -9 19 4 14 18 -4 11 -6 11 -12 0z"/>
<path d="M1803 9355 c-3 -9 -3 -18 -1 -21 3 -3 8 4 11 16 6 23 -1 27 -10 5z"/>
<path d="M1774 9287 c-6 -7 -14 -26 -17 -43 -6 -35 -42 -162 -52 -186 -5 -12
-3 -18 6 -18 9 0 24 40 43 120 17 66 33 120 38 120 4 0 8 5 8 10 0 14 -13 12
-26 -3z"/>
<path d="M10213 9240 c-27 -11 -28 -25 -8 -120 25 -121 34 -117 35 13 0 64 -1
117 -2 116 -2 0 -13 -4 -25 -9z"/>
<path d="M3120 9202 c0 -32 4 -42 16 -42 13 0 15 7 10 32 -10 52 -26 58 -26
10z"/>
<path d="M8157 9150 c-15 -46 -35 -418 -28 -537 2 -23 21 -14 22 10 1 21 1 21
8 -3 17 -59 24 15 23 244 0 216 -10 329 -25 286z m6 -111 c-4 -4 -6 13 -3 39
l5 47 3 -39 c2 -21 0 -42 -5 -47z"/>
<path d="M1706 8984 c-8 -21 -8 -21 7 -27 10 -4 13 2 9 19 -5 28 -8 30 -16 8z"/>
<path d="M1677 8918 c-3 -13 -1 -45 3 -73 7 -50 7 -49 9 23 1 73 -3 90 -12 50z"/>
<path d="M190 8872 c0 -5 -15 -17 -32 -26 -18 -10 -44 -33 -58 -51 -18 -24
-36 -35 -62 -39 l-38 -6 0 -71 0 -70 30 18 c17 9 30 20 30 23 0 4 8 15 18 26
47 53 82 105 82 120 0 9 11 32 26 51 14 18 20 33 15 33 -6 0 -11 -4 -11 -8z"/>
<path d="M1671 8734 c0 -11 3 -14 6 -6 3 7 2 16 -1 19 -3 4 -6 -2 -5 -13z"/>
<path d="M4240 8690 c0 -5 5 -10 11 -10 5 0 7 5 4 10 -3 6 -8 10 -11 10 -2 0
-4 -4 -4 -10z"/>
<path d="M4145 8680 c-3 -5 -1 -10 4 -10 6 0 11 5 11 10 0 6 -2 10 -4 10 -3 0
-8 -4 -11 -10z"/>
<path d="M1617 8628 c-4 -29 -11 -78 -17 -108 -5 -30 -12 -203 -16 -385 -8
-493 9 -648 125 -1110 39 -154 73 -300 76 -325 8 -55 53 -180 66 -180 14 0 27
33 44 111 9 41 24 99 34 129 42 127 61 222 66 339 3 55 9 97 16 101 12 8 7
175 -5 187 -3 4 -6 -2 -6 -11 0 -12 -5 -16 -15 -12 -28 10 -43 -5 -50 -52 -3
-26 -15 -83 -25 -127 -10 -44 -21 -130 -24 -192 -4 -62 -10 -122 -15 -135 l-9
-23 -10 27 c-30 74 -112 691 -112 835 0 40 -7 71 -21 97 -15 28 -17 41 -9 46
14 8 6 64 -17 129 -12 34 -14 67 -10 144 3 55 3 124 0 153 l-6 54 -38 0 c-39
0 -39 0 -39 40 l0 40 40 0 40 0 0 73 c0 39 -7 95 -15 122 l-15 50 6 -42 c5
-36 3 -43 -11 -43 -15 0 -17 8 -13 49 7 68 -8 86 -15 19z"/>
<path d="M2707 8660 c-3 -11 -1 -20 4 -20 5 0 9 9 9 20 0 11 -2 20 -4 20 -2 0
-6 -9 -9 -20z"/>
<path d="M184 8651 c-11 -9 -23 -33 -27 -54 -5 -31 -3 -37 12 -37 13 0 21 13
29 51 7 29 11 53 10 55 -2 1 -12 -5 -24 -15z"/>
<path d="M2677 8630 c3 -11 7 -20 9 -20 2 0 4 9 4 20 0 11 -4 20 -9 20 -5 0
-7 -9 -4 -20z"/>
<path d="M2933 8600 c0 -25 2 -35 4 -22 2 12 2 32 0 45 -2 12 -4 2 -4 -23z"/>
<path d="M4305 8630 c3 -5 8 -10 11 -10 2 0 4 5 4 10 0 6 -5 10 -11 10 -5 0
-7 -4 -4 -10z"/>
<path d="M4352 8616 c-38 -22 -36 -25 10 -23 37 2 44 5 40 20 -5 20 -17 20
-50 3z"/>
<path d="M4280 8610 c0 -5 5 -10 11 -10 5 0 7 5 4 10 -3 6 -8 10 -11 10 -2 0
-4 -4 -4 -10z"/>
<path d="M2640 8570 c0 -5 5 -10 11 -10 5 0 7 5 4 10 -3 6 -8 10 -11 10 -2 0
-4 -4 -4 -10z"/>
<path d="M4386 8571 c-4 -7 -5 -15 -2 -18 9 -9 19 4 14 18 -4 11 -6 11 -12 0z"/>
<path d="M2802 8535 c0 -16 2 -22 5 -12 2 9 2 23 0 30 -3 6 -5 -1 -5 -18z"/>
<path d="M3831 8544 c0 -11 3 -14 6 -6 3 7 2 16 -1 19 -3 4 -6 -2 -5 -13z"/>
<path d="M8130 8534 c0 -16 5 -36 11 -44 7 -11 8 -4 3 25 -8 50 -14 58 -14 19z"/>
<path d="M8163 8505 c0 -33 2 -45 4 -27 2 18 2 45 0 60 -2 15 -4 0 -4 -33z"/>
<path d="M4545 8530 c3 -5 8 -10 11 -10 2 0 4 5 4 10 0 6 -5 10 -11 10 -5 0
-7 -4 -4 -10z"/>
<path d="M142 8513 c-6 -12 -12 -28 -12 -37 0 -8 -11 -28 -25 -44 -14 -17 -25
-40 -25 -53 0 -18 -11 -29 -40 -42 l-40 -19 0 -79 0 -79 30 0 c28 0 30 2 30
40 0 36 3 40 25 40 25 0 25 1 25 80 0 61 3 80 14 80 16 0 39 76 34 111 l-3 24
-13 -22z"/>
<path d="M2616 8481 c-4 -7 -5 -15 -2 -18 9 -9 19 4 14 18 -4 11 -6 11 -12 0z"/>
<path d="M8920 8465 c0 -8 2 -15 4 -15 2 0 6 7 10 15 3 8 1 15 -4 15 -6 0 -10
-7 -10 -15z"/>
<path d="M2610 8360 c0 -22 5 -40 10 -40 6 0 10 18 10 40 0 22 -4 40 -10 40
-5 0 -10 -18 -10 -40z"/>
<path d="M2581 8334 c0 -11 3 -14 6 -6 3 7 2 16 -1 19 -3 4 -6 -2 -5 -13z"/>
<path d="M8091 8305 c0 -11 6 -42 13 -70 12 -44 14 -47 21 -26 4 14 3 26 -4
30 -6 4 -15 25 -20 46 -5 22 -9 31 -10 20z"/>
<path d="M8130 8295 c0 -14 2 -25 4 -25 2 0 6 11 8 25 3 14 1 25 -3 25 -5 0
-9 -11 -9 -25z"/>
<path d="M8020 8223 c1 -30 26 -71 37 -60 4 4 1 13 -5 19 -7 7 -12 25 -12 40
0 15 -4 28 -10 28 -5 0 -10 -12 -10 -27z"/>
<path d="M8062 8236 c7 -8 15 -12 17 -11 5 6 -10 25 -20 25 -5 0 -4 -6 3 -14z"/>
<path d="M8000 8170 c0 -5 5 -10 11 -10 5 0 7 5 4 10 -3 6 -8 10 -11 10 -2 0
-4 -4 -4 -10z"/>
<path d="M8798 8128 c0 -18 -1 -40 0 -49 1 -9 -8 -25 -18 -34 -11 -10 -20 -24
-20 -32 0 -7 -4 -13 -9 -13 -5 0 -12 -8 -15 -17 -10 -28 -36 -73 -78 -136 -21
-32 -38 -64 -38 -72 0 -7 -9 -15 -20 -18 -11 -3 -20 -13 -20 -22 0 -10 -13
-40 -30 -67 -16 -26 -30 -53 -30 -58 0 -6 -4 -10 -10 -10 -5 0 -10 -8 -10 -18
0 -27 -42 -62 -73 -62 -15 0 -27 -4 -27 -9 0 -4 -44 -11 -97 -15 -53 -4 -103
-12 -110 -17 -7 -6 -20 -9 -28 -5 -9 3 -13 2 -10 -4 5 -9 -15 -16 -75 -25 -14
-2 -19 -2 -12 1 6 3 12 10 12 15 0 6 -8 6 -19 -1 -26 -13 -68 -13 -77 1 -3 6
-2 21 4 32 6 12 15 56 21 97 5 41 14 100 20 130 22 126 34 198 38 239 4 30 8
39 14 30 5 -9 8 12 8 56 -1 100 -4 105 -49 105 -27 0 -40 -5 -45 -17 -4 -10
-18 -49 -31 -88 -14 -38 -29 -79 -34 -90 -5 -11 -21 -49 -36 -85 -14 -36 -37
-89 -50 -118 -13 -29 -35 -79 -48 -110 -35 -82 -112 -226 -158 -294 -32 -47
-168 -319 -168 -335 0 -3 -20 -29 -45 -57 -25 -29 -45 -58 -45 -65 0 -6 -5
-11 -10 -11 -6 0 -18 -17 -28 -37 -9 -21 -19 -40 -22 -43 -3 -3 -27 -39 -55
-80 -27 -41 -53 -76 -57 -78 -5 -2 -8 -9 -8 -15 0 -19 -63 -147 -72 -147 -4 0
-8 -6 -8 -14 0 -8 -4 -16 -9 -18 -4 -1 -12 -13 -15 -25 -6 -17 -3 -23 8 -23 9
0 16 5 16 10 0 6 8 10 18 10 20 1 62 33 62 49 0 6 4 11 9 11 5 0 24 15 43 33
56 53 81 70 123 85 54 19 150 27 159 14 7 -12 -23 -68 -65 -122 -22 -28 -42
-40 -105 -59 -44 -13 -93 -35 -110 -48 -17 -12 -36 -23 -42 -23 -7 0 -12 -4
-12 -8 0 -4 -12 -15 -27 -24 -80 -47 -147 -134 -142 -182 3 -27 -10 -66 -22
-66 -5 0 -9 -6 -9 -14 0 -8 -11 -28 -25 -44 -13 -16 -34 -64 -46 -108 -11 -43
-32 -104 -46 -134 -20 -42 -29 -87 -40 -195 -8 -78 -21 -153 -30 -170 -8 -17
-14 -53 -14 -82 1 -29 -3 -53 -8 -53 -5 0 -5 -15 2 -36 8 -27 17 -37 38 -41
19 -3 29 -12 31 -27 2 -15 9 -20 23 -18 11 2 22 5 23 7 2 2 5 51 7 108 3 115
8 135 31 116 11 -9 14 -8 14 5 0 12 10 16 40 16 22 0 40 -5 40 -11 0 -12 17
-29 48 -46 26 -16 109 -17 114 -3 2 7 16 5 36 -6 60 -30 130 -43 180 -35 76
13 96 25 111 67 7 22 18 45 23 52 12 14 48 16 48 2 0 -5 6 -10 13 -10 14 0 77
-62 77 -76 0 -5 -5 -2 -10 6 -8 13 -10 13 -10 -1 0 -9 -9 -24 -20 -34 -26 -23
-25 -29 4 -43 34 -15 88 3 108 38 8 15 30 33 47 41 17 8 31 19 31 25 0 7 10
14 23 18 12 3 32 14 44 26 12 11 33 21 45 23 20 2 23 -3 26 -40 2 -29 -5 -59
-22 -96 -29 -64 -57 -95 -109 -122 -21 -11 -48 -31 -61 -45 -25 -28 -84 -80
-90 -80 -2 0 -24 -20 -50 -44 -26 -24 -71 -55 -101 -70 -30 -15 -55 -30 -55
-35 0 -10 -114 -53 -150 -57 -30 -3 -63 -10 -93 -20 -12 -4 -37 -6 -55 -6 -19
1 -30 -3 -27 -8 3 -6 13 -10 21 -10 7 0 26 -13 41 -30 14 -16 32 -30 40 -30 7
0 13 -4 13 -9 0 -5 16 -12 35 -15 28 -5 35 -12 35 -29 0 -16 -3 -19 -9 -8 -7
11 -10 9 -16 -8 -3 -11 -11 -21 -16 -21 -5 0 -9 -4 -9 -10 0 -5 14 -10 30 -10
17 0 30 5 30 10 0 6 15 10 33 10 52 1 138 25 151 42 6 9 23 18 36 20 26 4 18
8 -97 38 -24 6 -43 15 -43 19 0 9 97 33 185 46 49 8 115 37 97 43 -7 2 -19 -2
-28 -8 -8 -7 -17 -10 -21 -7 -3 4 7 12 23 19 16 7 36 21 46 30 10 11 25 14 40
11 19 -5 21 -4 11 8 -15 18 -11 54 12 102 18 35 35 49 35 27 0 -16 37 -12 43
5 4 8 22 21 42 29 40 17 45 33 13 39 -13 2 -4 5 20 6 36 1 42 4 42 22 0 14 5
19 14 16 18 -7 40 18 31 33 -9 15 15 42 32 36 8 -3 13 2 13 12 0 10 8 25 18
34 39 37 56 72 55 117 -1 25 1 38 3 29 14 -46 38 -7 55 87 26 148 26 163 6
184 -14 13 -17 25 -12 38 7 16 9 15 16 -7 6 -16 7 8 4 62 -3 48 -10 99 -15
114 -27 71 34 10 76 -76 15 -30 31 -63 36 -73 36 -74 48 -267 28 -456 -9 -83
-20 -125 -77 -276 -10 -27 -11 -41 -4 -43 6 -2 11 -13 11 -24 0 -16 5 -19 21
-15 17 5 20 2 16 -14 -7 -27 8 -24 31 6 11 14 25 25 31 25 6 0 11 6 11 14 0 8
11 28 25 44 14 17 25 34 25 38 0 5 13 23 28 39 55 60 89 111 101 154 9 30 16
40 23 33 11 -11 -4 -93 -27 -147 -15 -33 -51 -182 -60 -250 -2 -9 -9 -29 -20
-57 -3 -7 -16 -31 -30 -53 -14 -22 -29 -50 -35 -61 -5 -12 -13 -23 -17 -25 -5
-2 -24 -24 -43 -49 -19 -24 -41 -51 -47 -58 -15 -16 -17 -68 -3 -77 5 -3 6
-13 3 -22 -11 -28 65 -9 93 24 43 50 35 17 -14 -58 -27 -41 -67 -101 -88 -133
-21 -32 -43 -66 -49 -75 -5 -9 -12 -18 -15 -21 -4 -3 -22 -36 -40 -74 -19 -37
-46 -80 -60 -95 -52 -54 -223 -211 -232 -211 -4 0 -8 -5 -8 -11 0 -6 -10 -19
-22 -29 l-23 -18 24 -19 24 -19 -43 -34 c-36 -28 -41 -30 -31 -11 7 12 10 25
8 28 -3 2 -8 -5 -12 -16 -3 -12 -11 -21 -16 -21 -6 0 -7 -5 -4 -10 3 -5 0 -10
-8 -10 -7 0 -23 -9 -35 -20 -12 -11 -28 -20 -37 -20 -8 0 -15 -4 -15 -10 0
-16 10 -12 88 30 71 39 279 198 353 270 184 178 227 222 260 266 22 28 39 55
39 61 0 6 6 15 13 21 25 21 167 325 167 357 0 8 6 15 13 15 14 1 76 93 111
167 14 28 32 57 40 66 9 8 52 64 97 124 69 93 116 149 213 257 24 27 86 123
86 133 0 5 10 19 23 33 23 25 30 36 78 133 13 26 50 76 82 112 31 35 57 70 57
79 0 9 5 16 12 16 6 0 9 2 6 5 -3 3 -37 -25 -74 -64 -84 -84 -87 -88 -148
-178 -27 -40 -84 -106 -125 -146 -42 -40 -114 -115 -161 -167 -47 -52 -115
-125 -151 -162 -37 -37 -82 -88 -100 -113 -33 -43 -59 -63 -59 -46 0 10 101
153 135 191 22 24 105 187 105 204 0 8 33 51 78 101 26 29 78 130 97 189 9 27
44 108 79 180 57 117 146 352 146 386 0 6 11 34 25 61 13 27 27 66 31 86 5 33
-1 25 -46 -52 -73 -127 -140 -226 -156 -232 -8 -3 -14 -9 -14 -14 0 -13 -62
-68 -77 -69 -12 0 -28 -54 -20 -67 3 -5 -12 -25 -32 -45 -27 -29 -40 -35 -51
-28 -13 9 -13 12 1 23 13 10 37 56 84 162 7 17 28 62 45 100 49 105 48 103 64
205 7 52 21 121 30 153 9 32 16 69 16 82 0 13 4 25 9 27 6 2 12 30 15 63 2 33
11 78 19 100 8 22 21 63 27 90 7 28 17 54 21 60 5 5 9 18 9 28 0 10 6 33 14
50 26 58 46 127 46 162 0 19 5 35 10 35 6 0 10 8 10 18 0 11 9 45 21 78 11 32
31 100 44 149 52 197 27 248 -47 98 -23 -49 -58 -107 -76 -131 -18 -24 -30
-47 -27 -52 3 -5 -6 -21 -20 -36 -29 -31 -44 -56 -80 -134 -13 -30 -32 -68
-41 -85 -10 -16 -32 -58 -51 -93 -18 -35 -39 -70 -47 -78 -8 -8 -18 -23 -21
-34 -3 -11 -11 -20 -16 -20 -5 0 -9 -6 -9 -14 0 -7 -12 -35 -27 -62 -46 -85
-72 -139 -73 -150 0 -7 -6 -14 -12 -17 -12 -5 -27 -30 -79 -139 -12 -27 -27
-48 -33 -48 -16 0 -34 32 -41 74 -4 20 -11 36 -15 36 -5 0 -18 20 -30 45 -23
49 -24 110 -1 190 6 22 16 72 21 110 14 107 90 431 107 458 2 4 5 149 5 322 0
173 4 315 9 315 5 0 9 -10 9 -22 0 -36 10 -14 14 34 3 25 6 49 7 54 1 5 1 46
0 92 -1 81 -1 82 -26 82 -21 0 -25 -5 -27 -32z m-463 -772 c15 -23 14 -30 -15
-118 -37 -112 -58 -158 -70 -158 -6 0 -10 -7 -10 -15 0 -25 -76 -93 -117 -104
-21 -6 -102 -12 -181 -13 l-143 -3 7 30 c3 16 12 40 20 52 8 12 14 27 14 32 0
5 5 22 12 38 6 15 12 55 13 88 1 33 8 71 15 85 22 43 73 90 97 90 13 0 23 5
23 10 0 6 60 10 160 10 158 0 160 0 175 -24z m274 -111 c4 -52 -35 -514 -44
-524 -6 -5 -79 31 -83 42 -2 4 -10 7 -17 7 -8 0 -20 6 -27 13 -7 7 -44 29 -83
48 -102 50 -105 52 -105 70 0 36 123 195 267 347 55 57 86 56 92 -3z m-913
-167 c-15 -49 -28 -74 -42 -78 -20 -8 -44 -3 -44 10 0 8 98 140 104 140 2 0
-6 -32 -18 -72z m152 -219 c107 -28 171 -50 177 -59 7 -12 -40 -65 -218 -248
-62 -63 -138 -112 -176 -112 -11 0 -32 -11 -47 -25 -27 -25 -60 -37 -36 -13 7
7 12 27 12 45 0 18 5 33 10 33 6 0 10 9 10 19 0 11 5 23 10 26 6 3 10 15 10
27 0 11 8 32 19 46 19 29 101 211 101 226 0 9 40 56 47 56 2 0 38 -9 81 -21z
m-244 -36 c-10 -40 -45 -90 -72 -103 -13 -5 -39 -10 -58 -10 l-35 0 22 39 c25
45 69 81 113 92 17 4 32 7 34 8 1 1 -1 -11 -4 -26z m696 -112 c86 -49 91 -53
142 -103 35 -34 48 -55 48 -75 -1 -63 -22 -174 -52 -271 l-32 -103 -22 43
c-13 24 -45 66 -72 93 -57 58 -65 64 -112 91 -19 10 -37 22 -40 25 -3 3 -12 8
-20 12 -21 9 -51 30 -68 45 -7 6 -20 12 -28 12 -8 0 -14 5 -14 10 0 6 -4 10
-10 10 -5 0 -29 12 -53 26 l-44 27 51 49 c151 145 158 150 221 145 32 -3 70
-16 105 -36z m-337 -211 c109 -63 113 -79 15 -61 -76 14 -118 30 -118 44 0 13
30 47 42 47 4 0 32 -14 61 -30z m1051 -112 c-10 -71 -83 -248 -102 -248 -11 0
-51 80 -57 116 -4 21 0 36 17 55 35 39 127 119 138 119 5 0 7 -19 4 -42z
m-384 22 c0 -5 6 -10 13 -10 7 0 23 -20 35 -45 21 -43 21 -48 7 -76 -9 -16
-23 -33 -31 -36 -7 -3 -14 -9 -14 -14 0 -18 -85 -89 -107 -89 -20 0 -23 4 -17
28 9 43 24 83 54 142 15 30 30 67 34 83 6 25 26 39 26 17z m-973 -96 c-3 -3
-12 -4 -19 -1 -8 3 -5 6 6 6 11 1 17 -2 13 -5z m-537 -122 c0 -14 -23 -32 -42
-32 -23 0 -23 16 0 29 21 13 42 14 42 3z m1707 -23 c65 -45 78 -81 58 -167
-40 -173 -82 -225 -118 -144 -9 21 -20 52 -23 70 -4 18 -11 32 -16 32 -9 0
-138 89 -138 95 0 2 28 23 63 48 34 25 73 57 86 71 14 14 29 26 33 26 5 0 30
-14 55 -31z m-791 -205 c118 -37 155 -90 158 -224 1 -19 5 -41 9 -47 5 -8 3
-13 -6 -13 -8 0 -20 -7 -27 -15 -7 -9 -20 -13 -28 -10 -8 3 -20 1 -26 -3 -6
-5 -39 -15 -74 -22 -71 -15 -122 -5 -159 29 -12 11 -34 23 -50 27 -15 3 -36 8
-45 10 -9 3 -29 25 -45 50 -15 24 -35 47 -44 49 -9 3 -23 20 -30 37 -18 44 -3
63 52 64 54 0 65 -8 91 -63 11 -24 22 -42 24 -40 2 2 -1 31 -7 65 -8 47 -8 70
1 91 23 56 68 59 206 15z m554 -60 c0 -22 -37 -16 -43 6 -3 11 -1 18 4 14 5
-3 9 0 9 7 0 8 4 8 15 -1 8 -7 15 -19 15 -26z m118 -215 c17 -32 7 -257 -14
-307 -8 -19 -14 -50 -14 -70 0 -19 -2 -33 -4 -31 -3 2 -9 81 -15 174 -13 222
5 312 47 234z m192 -79 c9 -6 10 -10 3 -10 -6 0 -15 -10 -18 -22 -4 -13 -20
-45 -36 -71 -16 -26 -34 -69 -41 -95 -15 -63 -60 -160 -66 -144 -2 8 1 26 8
40 7 15 17 38 23 52 5 14 13 33 18 42 5 10 9 29 9 42 0 14 4 35 9 48 5 13 14
41 21 63 11 35 34 64 50 65 3 0 12 -5 20 -10z m340 -142 c-33 -34 -30 -22 5
24 11 14 21 22 23 17 2 -5 -11 -23 -28 -41z m-2353 -260 c-3 -8 -6 -5 -6 6 -1
11 2 17 5 13 3 -3 4 -12 1 -19z m740 -364 c-3 -3 -12 -4 -19 -1 -8 3 -5 6 6 6
11 1 17 -2 13 -5z m708 -284 c3 -5 1 -10 -4 -10 -6 0 -11 5 -11 10 0 6 2 10 4
10 3 0 8 -4 11 -10z m-370 -722 c-28 -16 -45 -40 -44 -63 1 -13 3 -15 5 -5 4
15 43 45 49 38 2 -2 -9 -15 -23 -30 -24 -23 -29 -25 -45 -13 -18 13 -18 14 0
39 18 24 48 44 68 45 6 0 1 -5 -10 -11z"/>
<path d="M4248 8123 c7 -3 16 -2 19 1 4 3 -2 6 -13 5 -11 0 -14 -3 -6 -6z"/>
<path d="M6040 7850 c-12 -8 -11 -10 7 -10 12 0 25 5 28 10 8 13 -15 13 -35 0z"/>
<path d="M0 7520 l0 -80 40 0 40 0 0 80 0 80 -40 0 -40 0 0 -80z"/>
<path d="M4184 7567 c-3 -8 0 -36 6 -63 7 -27 15 -72 19 -101 7 -47 6 -52 -13
-57 -30 -8 -38 -7 -31 4 3 5 0 7 -9 4 -10 -4 -15 3 -18 23 -3 30 -30 40 -36
13 -6 -34 23 -53 84 -56 33 -1 62 -3 67 -3 4 -1 7 -8 7 -16 0 -18 20 -19 55
-3 30 14 34 53 6 68 -11 5 -41 53 -67 105 -47 94 -60 108 -70 82z"/>
<path d="M2025 7541 c-4 -19 -1 -40 9 -58 15 -28 15 -28 16 30 0 61 -14 77
-25 28z"/>
<path d="M0 7320 c0 -29 4 -40 15 -40 11 0 15 11 15 40 0 29 -4 40 -15 40 -11
0 -15 -11 -15 -40z"/>
<path d="M1231 7253 c0 -60 4 -144 10 -188 5 -44 11 -95 13 -113 9 -72 18
-112 27 -118 5 -3 9 -13 9 -22 0 -9 6 -29 14 -43 7 -14 19 -57 25 -95 7 -38
16 -94 21 -125 6 -30 10 -67 10 -82 0 -19 4 -25 14 -21 16 6 30 -25 21 -49 -4
-8 1 -29 10 -46 9 -17 11 -31 5 -31 -6 0 -10 -32 -10 -79 0 -54 -4 -81 -12
-84 -7 -3 2 -3 20 0 31 5 32 4 32 -29 0 -26 9 -45 38 -76 28 -30 42 -38 49
-31 6 6 16 8 22 5 18 -11 13 -26 -8 -26 -11 0 -23 -9 -26 -20 -3 -11 -11 -20
-16 -20 -14 0 -11 27 4 34 6 4 2 4 -10 2 -14 -2 -23 1 -23 8 0 6 -8 19 -17 27
-27 25 -53 58 -53 69 0 6 -4 10 -10 10 -5 0 -10 6 -10 14 0 8 -4 16 -9 18 -8
3 -90 167 -111 226 -7 17 -16 32 -20 32 -4 0 -10 18 -14 40 -3 22 -11 40 -16
40 -6 0 -10 8 -10 18 0 15 -19 79 -95 322 -13 41 -28 100 -34 130 -6 30 -15
71 -19 90 -8 34 -9 34 -20 13 -7 -12 -13 -48 -13 -80 -2 -79 40 -299 76 -408
9 -27 20 -66 25 -85 13 -56 59 -213 71 -240 30 -68 89 -172 120 -211 16 -20
29 -40 29 -44 0 -4 13 -24 28 -44 16 -20 34 -51 41 -68 8 -18 17 -33 22 -33 5
0 9 -7 9 -15 0 -8 4 -15 10 -15 5 0 19 -19 31 -42 12 -24 24 -45 28 -48 8 -6
91 -173 91 -182 0 -7 61 -110 71 -118 3 -3 8 -12 12 -20 3 -8 33 -58 66 -110
33 -52 68 -111 78 -130 9 -19 23 -39 30 -45 6 -5 37 -48 67 -94 31 -46 66 -91
79 -100 13 -9 41 -36 63 -60 21 -24 60 -66 86 -93 86 -91 140 -152 156 -177
21 -33 29 -40 77 -74 81 -56 108 -77 99 -77 -5 0 5 -8 23 -16 18 -9 31 -20 30
-24 -3 -11 111 -130 124 -130 5 0 9 -7 9 -15 0 -8 9 -15 20 -15 11 0 20 -5 20
-11 0 -12 69 -79 82 -79 4 0 8 7 8 15 0 8 -3 15 -7 15 -5 0 -17 14 -28 30 -11
16 -24 30 -30 30 -5 0 -23 18 -39 40 -17 22 -33 40 -37 40 -10 0 -173 165
-205 207 -13 17 -24 36 -24 41 0 5 -17 25 -38 44 -20 19 -41 42 -47 50 -37 56
-52 76 -77 101 -15 15 -28 34 -28 42 0 8 -4 15 -9 15 -6 0 -18 14 -28 30 -9
17 -23 30 -30 30 -7 0 -13 5 -13 11 0 6 -11 25 -25 43 -14 18 -25 42 -25 53 0
11 -11 29 -25 39 -14 10 -25 26 -25 35 0 9 -6 22 -14 28 -8 7 -18 26 -21 42
-4 16 -11 31 -16 34 -5 4 -9 19 -9 36 0 16 -4 29 -9 29 -14 0 -71 59 -71 74 0
8 -5 18 -11 22 -6 3 -20 26 -31 50 -10 24 -23 44 -28 44 -10 0 -63 86 -66 108
-2 8 -10 19 -20 26 -11 9 -15 21 -11 36 7 28 -2 80 -14 80 -5 0 -9 -7 -9 -15
0 -18 -16 -20 -26 -4 -11 18 17 29 79 29 50 0 57 -2 57 -20 0 -17 7 -20 40
-20 l40 0 0 40 c0 22 -4 40 -10 40 -5 0 -16 16 -24 35 -8 19 -19 35 -23 35
-10 0 -83 106 -83 120 0 6 -4 10 -10 10 -5 0 -10 5 -10 11 0 6 -18 38 -40 71
-22 33 -40 64 -40 68 0 5 -3 10 -7 12 -11 4 -73 128 -73 144 0 8 -4 14 -9 14
-10 0 -93 194 -111 260 -7 25 -16 54 -21 65 -22 52 -58 169 -78 255 -12 52
-26 102 -30 110 -5 9 -14 49 -20 90 -21 134 -54 260 -68 260 -9 0 -13 14 -13
40 0 22 -4 40 -10 40 -6 0 -10 -42 -9 -107z m159 -763 c0 -5 -4 -10 -10 -10
-5 0 -10 5 -10 10 0 6 5 10 10 10 6 0 10 -4 10 -10z m135 -410 c-3 -5 -12 -10
-18 -10 -7 0 -6 4 3 10 19 12 23 12 15 0z m23 -132 c17 -17 15 -25 -8 -31 -16
-4 -20 0 -20 19 0 26 10 30 28 12z m26 -54 c-11 -17 -20 -22 -27 -15 -12 12 8
41 29 41 12 0 11 -5 -2 -26z m55 -85 c39 -43 41 -49 22 -49 -11 0 -21 5 -21
11 0 6 -13 24 -30 39 -28 26 -40 51 -22 49 4 -1 27 -23 51 -50z m36 -79 c3 -5
1 -10 -4 -10 -6 0 -11 5 -11 10 0 6 2 10 4 10 3 0 8 -4 11 -10z m41 -24 c19
-19 18 -23 -6 -29 -16 -4 -20 0 -20 19 0 28 6 30 26 10z m44 -91 c0 -8 -4 -15
-10 -15 -5 0 -10 7 -10 15 0 8 5 15 10 15 6 0 10 -7 10 -15z"/>
<path d="M3860 7065 c0 -11 4 -27 10 -35 8 -12 10 -12 16 4 4 11 0 24 -10 34
-15 15 -16 15 -16 -3z"/>
<path d="M223 7063 c-18 -7 -16 -23 2 -23 8 0 15 7 15 15 0 8 -1 15 -2 14 -2
0 -9 -3 -15 -6z"/>
<path d="M3841 7024 c0 -11 3 -14 6 -6 3 7 2 16 -1 19 -3 4 -6 -2 -5 -13z"/>
<path d="M194 7009 c-4 -8 -12 -34 -16 -59 -18 -95 -21 -105 -30 -111 -10 -6
-57 -173 -59 -209 -1 -17 -3 -19 -6 -7 -9 35 -33 19 -33 -23 0 -22 -4 -40 -10
-40 -5 0 -10 -18 -10 -40 0 -22 5 -40 10 -40 6 0 10 -18 10 -40 0 -22 5 -40
10 -40 14 0 11 -147 -4 -240 -10 -65 -13 -72 -24 -55 -26 44 -32 -10 -32 -294
0 -264 1 -283 17 -270 9 8 46 42 82 76 71 67 96 76 106 41 8 -25 52 -125 66
-148 18 -30 38 -80 69 -171 35 -105 88 -219 101 -219 5 0 9 -4 9 -10 0 -5 18
-47 39 -92 22 -46 47 -102 55 -125 9 -24 24 -62 33 -85 15 -38 17 -78 15 -338
-3 -313 -9 -360 -64 -528 -15 -47 -17 -67 -9 -75 17 -17 13 -30 -6 -22 -14 5
-15 4 -6 -6 10 -10 17 -9 32 5 23 21 91 147 91 170 0 9 5 16 10 16 6 0 10 7
10 16 0 8 10 36 22 62 12 26 23 54 24 62 2 8 7 23 13 35 5 11 15 37 21 57 23
76 53 73 65 -7 4 -22 20 -105 37 -185 17 -80 36 -176 43 -215 20 -106 39 -190
73 -305 29 -102 78 -333 87 -415 3 -22 9 -65 14 -95 16 -93 12 -165 -15 -281
-27 -116 -25 -137 14 -125 25 8 85 122 77 147 -3 9 -1 20 5 24 5 3 10 18 11
33 0 24 1 25 10 7 7 -16 8 -13 3 11 -3 20 0 37 9 46 8 8 18 34 22 57 5 32 10
40 17 30 6 -9 7 -3 3 20 -6 26 -4 32 5 26 9 -5 11 -4 6 4 -4 6 0 23 9 37 9 14
21 53 26 87 5 34 19 74 30 90 11 15 16 27 11 27 -15 0 29 135 58 180 6 8 15
25 22 38 18 35 25 27 31 -36 2 -32 9 -67 15 -78 5 -10 19 -40 31 -65 11 -25
39 -67 61 -92 22 -25 40 -50 40 -55 0 -5 7 -12 15 -16 8 -3 15 -12 15 -20 0
-7 7 -16 15 -20 8 -3 15 -13 15 -23 0 -16 22 -46 73 -105 9 -9 23 -32 32 -52
9 -19 28 -47 41 -61 13 -14 24 -29 24 -33 0 -4 21 -26 45 -50 25 -24 45 -50
45 -57 0 -8 15 -29 33 -48 43 -46 100 -131 127 -190 18 -39 54 -77 62 -65 1 2
4 152 7 335 4 219 10 336 17 343 15 15 56 -49 95 -147 16 -43 39 -98 51 -123
11 -25 40 -99 63 -165 45 -128 71 -292 63 -405 l-3 -55 -40 -7 c-22 -4 -89
-11 -150 -17 -252 -21 -513 -134 -589 -254 -18 -29 -47 -88 -66 -132 -18 -44
-48 -110 -66 -147 -19 -37 -34 -74 -34 -81 0 -12 -57 -171 -159 -447 -16 -41
-50 -129 -76 -195 -26 -66 -57 -145 -68 -175 -19 -50 -64 -128 -92 -156 -5 -6
-21 -26 -35 -45 -13 -19 -49 -58 -80 -87 -30 -30 -83 -81 -116 -113 -34 -33
-75 -64 -92 -70 -17 -6 -50 -34 -74 -62 -23 -28 -66 -76 -94 -107 -53 -57 -84
-99 -84 -112 0 -5 29 -8 65 -8 36 0 65 4 65 8 0 17 128 140 215 205 70 53 203
186 272 271 32 39 66 80 76 91 30 33 112 210 149 320 11 33 28 78 38 100 61
135 105 253 128 340 14 55 28 102 32 105 3 3 12 25 19 50 7 25 31 79 52 120
25 48 42 100 49 143 25 163 93 206 545 342 95 29 183 33 192 9 7 -18 -23 -62
-53 -78 -10 -6 -21 -14 -24 -17 -9 -9 -64 -28 -105 -35 -68 -11 -178 -55 -220
-87 -89 -67 -220 -211 -252 -277 -39 -79 -100 -250 -109 -305 -3 -22 -21 -91
-40 -152 -57 -192 -68 -402 -34 -681 22 -183 41 -291 65 -366 8 -27 15 -62 15
-78 l0 -28 70 0 c61 0 70 2 70 18 0 10 -21 117 -46 238 -48 229 -62 381 -63
673 -1 103 1 118 23 155 23 40 48 128 60 211 17 118 25 156 39 182 8 15 28 54
44 86 36 74 127 175 205 227 l61 41 18 -28 c61 -94 122 -170 169 -211 103 -91
196 -188 310 -322 30 -36 58 -66 62 -68 5 -2 8 -8 8 -13 0 -10 15 -29 76 -98
69 -77 91 -103 141 -171 26 -36 53 -69 59 -75 6 -5 39 -46 72 -90 101 -132
203 -246 377 -421 44 -44 96 -98 116 -120 20 -21 54 -53 75 -71 65 -53 100
-87 119 -115 17 -28 17 -28 137 -28 l119 0 72 61 c40 34 79 64 87 67 25 9 113
68 145 97 17 15 46 39 65 54 19 14 37 28 40 32 4 5 165 136 215 177 29 23 136
114 161 137 12 11 43 38 69 60 27 22 85 72 131 110 148 124 236 207 393 370
180 186 216 242 225 348 11 129 38 201 80 217 26 10 52 -4 92 -47 17 -18 34
-33 38 -33 17 0 55 -59 66 -100 17 -69 29 -108 60 -190 15 -41 47 -136 70
-210 22 -74 54 -176 71 -227 16 -50 29 -101 29 -113 0 -11 -31 -85 -69 -163
-38 -78 -88 -196 -111 -262 -45 -128 -98 -261 -124 -310 -9 -16 -16 -40 -16
-52 0 -21 5 -23 54 -23 69 0 60 -15 205 333 23 54 41 100 41 103 0 3 16 42 35
86 37 83 90 254 107 343 9 49 6 59 -51 210 -32 88 -63 174 -66 190 -4 17 -22
64 -40 105 -40 89 -51 130 -37 130 6 0 14 -4 17 -10 3 -5 13 -10 21 -10 20 0
74 -41 74 -56 0 -6 6 -14 13 -17 7 -3 30 -33 52 -68 43 -71 67 -101 207 -261
54 -62 123 -152 155 -202 50 -81 104 -153 155 -209 16 -18 17 -17 36 25 11 23
27 52 35 63 15 19 12 24 -51 90 -90 94 -162 176 -162 184 0 4 -20 28 -45 55
-25 27 -45 53 -45 57 0 10 -28 19 -33 11 -2 -4 -2 -1 0 6 1 7 -33 51 -77 96
-44 46 -95 102 -112 125 -18 22 -36 41 -40 41 -4 0 -8 4 -8 9 0 5 -37 46 -82
92 l-83 83 52 6 c36 4 63 14 90 36 21 16 77 52 124 78 47 26 117 73 155 103
99 78 257 228 306 290 24 29 46 53 49 53 8 0 -33 -136 -49 -165 -29 -52 -80
-395 -68 -457 15 -77 51 -75 86 5 12 28 28 63 34 77 6 14 17 29 23 33 7 4 13
13 13 18 0 6 -4 7 -10 4 -5 -3 -7 0 -4 9 3 8 12 12 21 9 12 -5 14 -1 8 18 -5
18 -4 20 4 9 8 -12 13 -12 23 -2 10 10 10 15 -2 23 -13 9 -12 10 2 6 11 -4 44
21 103 77 48 46 83 86 79 88 -5 3 -3 3 4 1 16 -4 24 4 81 81 25 33 46 55 48
49 3 -7 -5 -42 -16 -78 -12 -37 -24 -111 -27 -165 l-7 -98 41 5 c36 5 41 3 45
-18 4 -22 4 -22 6 4 0 15 6 27 11 27 6 0 10 9 10 19 0 10 13 33 30 51 16 18
27 36 24 41 -3 5 -1 9 5 9 9 0 44 54 46 70 0 3 13 17 28 32 15 15 27 32 27 38
0 6 10 10 23 8 13 -2 30 5 41 17 18 20 18 20 12 -3 -8 -25 -3 -28 16 -9 7 7
29 22 48 34 19 12 44 30 55 40 11 10 36 30 57 45 20 15 42 34 50 41 7 7 51 42
98 77 119 90 223 181 303 264 37 38 67 72 67 74 0 1 11 15 25 30 14 15 25 30
25 34 0 17 49 77 53 66 5 -15 -2 -106 -10 -128 -4 -8 -5 -23 -4 -33 1 -9 -2
-17 -7 -17 -8 0 -23 -82 -23 -130 -1 -8 -3 -22 -6 -30 -3 -8 -5 -31 -4 -50 1
-33 1 -34 -14 -16 -18 24 -19 11 -4 -50 17 -68 43 -73 97 -19 44 44 61 86 18
46 -13 -12 -26 -18 -30 -13 -6 11 54 203 81 257 11 22 39 90 62 152 33 91 41
124 40 177 -1 50 4 76 22 108 16 32 23 62 24 115 1 39 7 78 13 85 6 8 11 23
11 33 -1 11 2 30 6 43 4 12 3 22 -2 22 -12 0 -38 -38 -123 -180 -70 -116 -151
-242 -160 -250 -4 -3 -11 -13 -16 -22 -5 -9 -45 -56 -89 -104 -43 -47 -93
-103 -110 -124 -33 -41 -130 -131 -215 -200 -30 -25 -56 -48 -58 -52 -2 -5 -8
-8 -13 -8 -5 0 -22 -11 -37 -24 -63 -57 -90 -79 -142 -119 -30 -23 -57 -44
-60 -47 -19 -21 -99 -80 -107 -80 -6 0 -13 -7 -17 -15 -3 -8 -13 -15 -23 -15
-12 0 -24 -15 -35 -42 -24 -57 -32 -42 -19 35 17 98 66 216 111 267 64 72 124
150 175 228 20 30 36 48 113 130 43 45 84 82 90 82 7 0 12 5 12 10 0 6 7 10
15 10 8 0 15 5 15 10 0 6 5 10 12 10 12 0 116 104 194 195 78 92 114 150 114
184 0 37 -24 42 -41 9 -7 -13 -28 -39 -48 -59 -39 -39 -71 -77 -71 -83 0 -5
-63 -73 -150 -164 -75 -78 -197 -185 -223 -197 -12 -5 -24 -12 -27 -15 -3 -3
-21 -17 -40 -30 -19 -13 -37 -27 -40 -31 -8 -9 -120 -51 -162 -59 -33 -6 -37
-5 -43 18 -10 40 44 96 136 143 35 17 68 37 74 44 5 7 44 35 85 62 41 28 103
77 136 109 98 93 176 162 217 189 74 51 33 72 -65 35 -29 -11 -54 -20 -56 -20
-9 0 70 102 113 146 41 43 64 57 125 77 41 14 87 28 103 31 34 8 37 -11 2 -20
-37 -9 -50 -30 -32 -49 14 -14 19 -13 49 3 70 40 113 66 118 72 5 5 28 16 85
40 28 12 82 38 130 64 11 6 23 15 27 20 4 6 13 4 22 -3 13 -11 16 -11 16 1 0
17 88 108 105 108 6 0 17 9 25 20 8 11 21 20 28 20 7 0 44 30 81 68 69 68 100
92 123 92 15 0 48 49 68 100 17 45 48 87 116 156 30 31 54 58 54 60 0 5 60 85
71 94 3 3 16 26 29 53 13 26 32 56 42 67 10 10 18 26 18 35 0 8 3 15 8 15 10
0 40 57 48 93 3 15 11 27 18 27 11 0 34 34 68 99 10 19 18 38 18 42 0 3 16 24
36 45 19 22 42 53 50 70 8 17 23 40 32 50 42 45 82 115 105 184 29 85 71 175
87 185 5 3 10 13 10 21 0 8 9 24 19 35 11 12 30 42 43 67 12 26 26 49 29 52 8
8 46 93 106 239 104 254 131 330 142 403 17 109 42 218 52 224 11 7 12 804 1
804 -9 0 -26 -149 -42 -370 -15 -197 -29 -286 -75 -463 -53 -207 -88 -327 -95
-327 -3 0 -4 98 -2 217 5 330 -12 921 -26 935 -13 13 -20 -1 -58 -122 -13 -41
-32 -102 -43 -135 -11 -33 -33 -100 -50 -150 -36 -111 -61 -181 -76 -220 -7
-16 -24 -61 -39 -100 -15 -38 -40 -98 -56 -133 -17 -34 -30 -64 -30 -66 0 -2
9 -6 21 -9 18 -5 20 -2 15 17 -4 15 1 32 14 47 11 13 23 29 28 34 4 6 11 19
16 30 6 16 9 17 17 5 8 -11 9 -3 6 28 l-5 42 44 0 c28 0 44 4 44 13 0 6 5 4
11 -7 6 -10 7 -21 3 -25 -5 -3 -9 -31 -10 -61 0 -30 2 -47 4 -37 2 9 8 17 14
17 10 0 9 -22 -13 -162 -7 -43 -16 -78 -20 -78 -4 0 -10 -15 -14 -32 -9 -47
-55 -167 -66 -174 -5 -3 -9 -15 -9 -27 0 -36 -39 -146 -91 -254 -27 -56 -49
-106 -49 -112 0 -6 -4 -11 -9 -11 -5 0 -23 -28 -41 -62 -18 -33 -42 -72 -55
-86 -13 -14 -29 -36 -37 -51 -7 -14 -21 -32 -31 -39 -10 -8 -16 -19 -14 -25 9
-26 -96 -152 -119 -143 -9 3 -17 -7 -24 -32 -5 -20 -23 -57 -40 -82 -16 -25
-30 -50 -30 -57 0 -6 -3 -13 -8 -15 -4 -1 -23 -28 -42 -58 -19 -30 -39 -60
-45 -66 -5 -7 -19 -25 -30 -40 -33 -49 -117 -125 -132 -120 -8 3 -13 -2 -13
-13 0 -10 -11 -23 -25 -29 -23 -11 -59 -57 -96 -124 -11 -18 -19 -24 -22 -16
-3 8 -9 3 -15 -13 -6 -15 -18 -29 -26 -32 -9 -4 -16 -17 -16 -29 0 -19 -2 -20
-10 -8 -6 10 -10 11 -10 3 0 -7 -8 -13 -17 -13 -13 0 -14 -3 -5 -12 18 -18 15
-39 -5 -36 -11 2 -19 -5 -21 -16 -5 -22 -51 -63 -66 -58 -5 2 -6 -7 -3 -19 5
-17 2 -20 -14 -16 -13 4 -19 0 -19 -13 0 -10 -7 -20 -15 -24 -8 -3 -15 -15
-15 -26 0 -12 -4 -18 -10 -15 -5 3 -10 0 -10 -8 0 -7 -25 -27 -55 -42 -30 -16
-55 -33 -55 -37 0 -4 -39 -35 -87 -69 -49 -34 -99 -72 -113 -84 -14 -13 -50
-33 -80 -46 -30 -13 -68 -33 -85 -45 -21 -15 -39 -21 -57 -17 -28 5 -40 -11
-15 -21 8 -3 5 -11 -12 -25 -30 -27 -12 -27 39 -1 22 11 42 20 45 20 8 0 6
-28 -3 -32 -4 -1 -19 -21 -32 -43 -20 -32 -125 -162 -150 -185 -9 -8 -104
-122 -140 -169 -19 -24 -64 -92 -100 -150 -60 -97 -72 -110 -146 -161 -121
-83 -130 -90 -114 -91 8 0 -12 -9 -44 -20 -33 -10 -67 -25 -75 -32 -26 -22
-100 -57 -120 -57 -10 0 -24 -7 -31 -15 -7 -8 -19 -15 -26 -15 -8 0 -14 -6
-14 -14 0 -17 -36 -32 -120 -50 -36 -8 -110 -26 -165 -41 -55 -16 -113 -30
-129 -33 -17 -3 -39 -13 -50 -23 -11 -11 -27 -18 -35 -18 -13 1 -12 2 2 6 9 2
17 9 17 14 0 15 -18 10 -32 -9 -15 -21 -127 -62 -169 -62 -15 0 -69 -11 -120
-24 -52 -13 -125 -27 -162 -31 -52 -6 -67 -11 -63 -21 3 -8 1 -14 -3 -14 -5 0
-11 5 -13 11 -2 7 -11 8 -28 0 -14 -5 -70 -22 -125 -37 -131 -35 -181 -51
-208 -68 -23 -15 -75 -27 -197 -46 -41 -7 -108 -26 -149 -42 -41 -16 -80 -27
-87 -24 -7 3 -39 1 -71 -4 -32 -6 -98 -15 -148 -20 -49 -6 -124 -20 -166 -30
-43 -11 -97 -20 -121 -20 -23 0 -63 -5 -88 -11 -49 -11 -102 -5 -122 14 -8 7
-25 19 -40 27 -24 14 -57 40 -163 130 -57 49 -111 92 -171 137 -28 21 -80 63
-114 93 -138 121 -277 246 -305 275 -16 16 -70 66 -119 110 -50 44 -101 90
-113 103 -13 12 -26 22 -30 22 -3 0 -35 28 -72 63 -36 35 -91 86 -121 113 -30
27 -94 89 -142 137 -90 89 -212 197 -224 197 -17 0 -174 179 -174 199 0 5 -13
23 -30 41 -16 18 -30 37 -30 42 0 5 -9 21 -20 35 -11 14 -20 31 -20 37 0 7 -8
21 -19 32 -16 18 -56 74 -86 123 -5 9 -47 73 -92 143 -46 69 -83 129 -83 132
0 6 -23 36 -46 60 -13 14 -23 54 -33 131 -6 46 -24 91 -76 190 -37 72 -71 134
-76 140 -22 23 -6 -32 31 -104 22 -44 42 -94 45 -111 l6 -32 -61 34 c-40 22
-101 74 -182 155 -67 68 -126 123 -132 123 -6 0 -24 12 -41 26 -16 14 -39 33
-50 43 -24 19 -105 115 -105 124 0 3 -21 36 -46 73 -25 37 -54 87 -64 110 -24
56 -45 272 -31 317 21 68 33 157 26 194 l-8 38 -13 -30 -13 -30 -1 29 c0 61
-12 13 -15 -61 -2 -73 -11 -160 -21 -210 -9 -45 -72 -17 -89 38 -4 11 -10 19
-15 19 -21 0 -42 59 -55 161 -8 61 -18 115 -22 122 -3 6 -5 53 -4 104 1 61 -1
93 -8 93 -6 0 -11 20 -11 47 0 82 -10 39 -15 -63 -4 -103 -11 -134 -29 -146
-14 -10 -13 -324 1 -438 6 -47 19 -105 28 -130 13 -35 16 -66 12 -140 -3 -58
-2 -77 3 -50 7 45 7 45 8 -18 2 -83 -17 -256 -29 -260 -5 -2 -12 -21 -15 -43
-4 -21 -11 -39 -15 -39 -5 0 -6 18 -3 40 5 32 4 40 -9 40 -10 0 -18 -14 -22
-40 -4 -22 -11 -40 -17 -40 -7 0 -7 10 -2 28 10 31 10 339 1 349 -12 11 -14
-1 -19 -107 -2 -58 -3 -88 -1 -67 2 20 8 37 14 37 10 0 10 -61 -1 -105 -4 -16
-8 -24 -9 -17 0 7 -6 10 -11 7 -13 -8 -13 -45 0 -45 16 0 12 -17 -13 -47 -17
-19 -28 -53 -37 -108 -22 -139 -22 -212 0 -320 42 -202 40 -197 65 -172 16 17
21 87 6 87 -5 0 -12 -12 -14 -27 -3 -23 -4 -21 -6 9 -1 28 4 40 19 48 13 7 20
21 20 40 0 17 4 30 8 30 13 0 32 48 26 64 -9 24 4 38 26 26 15 -8 19 -5 23 23
3 17 20 79 37 137 17 58 34 116 37 130 3 14 12 29 19 33 8 4 14 14 14 22 0 13
27 47 101 125 35 39 109 66 109 41 0 -6 6 -11 13 -11 41 0 104 -118 157 -295
11 -38 30 -92 42 -120 26 -65 168 -348 177 -355 4 -3 23 -38 42 -77 18 -40 37
-73 42 -73 4 0 7 -6 7 -13 0 -20 76 -163 128 -241 47 -71 70 -101 107 -140 11
-12 31 -38 44 -58 12 -21 27 -38 32 -38 5 0 9 -6 9 -14 0 -7 7 -19 15 -26 22
-19 57 -86 95 -185 19 -49 38 -91 42 -93 4 -2 8 -10 8 -17 0 -17 37 -82 62
-111 10 -11 39 -67 64 -124 48 -110 48 -151 -1 -80 -33 47 -103 120 -116 120
-5 0 -9 5 -9 11 0 6 -6 16 -12 23 -7 7 -38 41 -68 76 -30 35 -61 68 -69 74
-18 14 -113 110 -174 175 -27 28 -53 51 -59 51 -5 0 -16 7 -24 15 -9 8 -27 18
-41 21 -13 4 -41 22 -61 41 -21 18 -47 36 -59 39 -12 3 -25 14 -28 24 -3 11
-15 22 -26 25 -11 4 -44 31 -73 61 -30 30 -59 54 -65 54 -6 0 -11 5 -11 11 0
5 -16 17 -35 25 -20 8 -38 21 -42 29 -3 8 -11 15 -19 15 -8 0 -14 6 -14 14 0
8 -14 15 -35 18 -42 5 -45 3 -45 -33 0 -19 6 -28 21 -32 11 -3 23 -15 26 -26
3 -13 13 -21 27 -21 17 0 26 -11 39 -47 9 -27 17 -63 17 -80 0 -20 5 -33 13
-33 6 -1 30 -19 52 -40 34 -33 47 -40 81 -40 43 0 46 -4 56 -77 1 -6 16 -28
34 -50 29 -33 33 -35 34 -16 0 12 6 24 13 26 9 4 8 8 -3 16 -17 12 -13 18 15
21 44 5 55 0 55 -24 0 -14 5 -28 10 -31 6 -3 10 -16 10 -28 0 -18 -2 -19 -10
-7 -7 11 -10 4 -10 -27 0 -24 5 -43 10 -43 6 0 10 -18 10 -40 0 -22 5 -40 10
-40 6 0 10 -18 10 -40 0 -34 -3 -40 -21 -40 -21 0 -22 -4 -17 -62 3 -35 4 -55
1 -46 -5 21 -36 32 -63 23 -17 -5 -20 -2 -20 21 0 22 -2 24 -14 14 -12 -10
-21 1 -50 64 -20 42 -36 80 -36 84 0 15 -25 62 -32 62 -5 0 -8 7 -8 15 0 8 -9
20 -20 27 -11 7 -20 17 -20 22 0 12 -57 66 -70 66 -5 0 -10 7 -10 15 0 14 -9
17 -57 19 -22 1 -54 47 -72 103 -8 23 -20 44 -27 47 -7 3 -16 22 -20 43 -4 21
-11 41 -17 44 -5 4 -6 35 -2 79 6 59 11 73 26 77 15 4 19 15 19 44 0 32 -3 39
-20 39 -16 0 -20 7 -20 38 0 21 -6 46 -13 57 -8 11 -24 46 -36 78 -13 31 -27
57 -31 57 -4 0 -13 -19 -20 -42 -7 -24 -16 -56 -21 -72 -5 -16 -9 -43 -9 -60
0 -48 -43 -216 -55 -216 -7 0 -16 39 -23 103 -6 56 -17 120 -24 142 l-12 40
-7 -40 c-5 -22 -12 -78 -18 -125 -6 -47 -17 -125 -25 -175 -8 -49 -15 -156
-15 -237 -1 -81 -6 -159 -12 -175 -6 -15 -15 -48 -19 -73 -7 -36 -8 -27 -6 45
2 70 -1 101 -15 138 -11 26 -26 85 -34 130 -14 81 -36 186 -74 362 -11 50 -52
216 -91 370 l-70 280 5 170 c10 304 14 368 25 379 17 17 12 125 -7 167 -19 40
-34 46 -39 15 -1 -10 -7 -23 -13 -29 -6 -6 -11 -19 -11 -29 0 -14 -8 -18 -40
-18 -22 0 -40 -4 -40 -10 0 -5 -18 -10 -40 -10 -38 0 -40 1 -41 33 l-1 32 -12
-29 c-17 -37 -30 -18 -21 31 6 33 5 35 -17 30 -20 -5 -28 1 -52 38 -15 25 -34
45 -42 45 -9 0 -14 12 -14 35 0 21 -6 38 -14 41 -14 5 -26 36 -31 82 -2 13
-11 29 -19 35 -20 15 -54 102 -71 182 -7 33 -22 87 -34 119 -25 71 -25 66 -3
66 11 0 32 20 51 50 18 28 38 56 44 63 17 17 77 132 77 147 0 6 7 18 15 26 8
9 15 24 15 34 0 10 9 34 19 52 24 40 39 128 22 128 -6 0 -11 -4 -11 -10 0 -5
-7 -10 -15 -10 -8 0 -15 -7 -15 -15 0 -9 -7 -18 -15 -21 -8 -4 -15 -14 -15
-24 0 -10 -7 -20 -14 -23 -8 -3 -18 -22 -22 -41 -4 -26 -11 -36 -25 -36 -11 0
-19 -7 -19 -15 0 -8 -4 -15 -9 -15 -13 0 -71 -106 -71 -130 0 -11 -7 -20 -15
-20 -8 0 -15 5 -15 10 0 6 -9 10 -20 10 -11 0 -20 -5 -20 -11 0 -6 -7 -4 -15
5 -8 8 -15 31 -15 50 0 20 -5 36 -11 36 -7 0 -8 11 -3 33 4 17 7 40 6 49 0 10
4 21 10 24 7 5 8 -10 4 -50 -5 -39 -4 -56 4 -56 8 0 11 25 8 80 -2 59 0 80 10
80 7 0 12 15 12 40 0 29 4 40 15 40 18 0 17 -36 15 330 -1 181 -5 306 -11 308
-5 2 -9 21 -9 43 0 28 -4 39 -15 39 -8 0 -15 6 -15 13 0 8 -9 22 -19 31 -15
14 -21 15 -27 5z m43 -121 c-3 -8 -6 -5 -6 6 -1 11 2 17 5 13 3 -3 4 -12 1
-19z m-21 -200 c-14 -269 -17 -314 -32 -383 -7 -38 -14 -74 -14 -80 0 -5 -5
-3 -10 5 -18 27 -11 158 19 375 20 145 33 215 38 215 3 0 2 -60 -1 -132z
m9676 -425 c-6 -74 -18 -99 -28 -58 -5 19 -3 30 4 33 7 2 12 21 12 43 0 21 4
39 8 39 5 0 7 -26 4 -57z m-9671 -434 c-16 -6 -28 -6 -35 1 -7 7 1 10 25 9 32
0 33 -1 10 -10z m-19 -41 c-6 -6 -19 -7 -29 -3 -17 7 -17 8 2 15 24 9 41 2 27
-12z m9610 -256 c6 -21 0 -133 -7 -140 -13 -13 -19 28 -17 111 2 47 15 63 24
29z m-42 -122 c0 -16 7 -36 16 -44 14 -15 14 -18 -5 -42 l-21 -27 0 32 c0 17
-5 31 -10 31 -7 0 -7 7 1 21 6 12 9 32 6 45 -2 13 0 21 4 18 5 -3 9 -18 9 -34z
m-50 -114 c0 -8 5 -16 10 -18 6 -2 -1 -27 -16 -58 -15 -31 -29 -80 -32 -115
-3 -33 -10 -64 -16 -70 -6 -5 -25 -48 -40 -94 -16 -47 -37 -92 -45 -102 -32
-35 -41 -48 -41 -59 0 -14 -23 -53 -36 -62 -6 -4 -19 -25 -28 -47 -12 -26 -23
-38 -32 -34 -10 4 -14 -3 -14 -25 0 -17 -7 -37 -15 -46 -8 -8 -15 -20 -15 -27
0 -8 -3 -9 -9 -3 -6 5 -4 30 6 64 8 30 19 71 23 90 4 19 13 55 18 80 22 96 73
214 176 405 9 17 16 33 16 38 0 13 35 42 50 42 8 0 16 7 16 15 1 8 2 21 3 28
1 17 21 15 21 -2z m-8906 -351 c-4 -8 -8 -15 -10 -15 -2 0 -4 7 -4 15 0 8 4
15 10 15 5 0 7 -7 4 -15z m8486 -69 c0 -3 -4 -8 -10 -11 -5 -3 -10 -1 -10 4 0
6 5 11 10 11 6 0 10 -2 10 -4z m-7556 -204 c15 -36 62 -89 199 -227 99 -99
191 -198 206 -220 52 -76 71 -148 81 -305 5 -80 14 -162 20 -184 7 -21 13 -46
15 -55 3 -9 7 -26 11 -38 9 -32 -12 -29 -33 5 -10 15 -20 29 -24 32 -3 3 -23
39 -44 80 -21 41 -47 86 -56 100 -9 14 -47 84 -84 155 -37 72 -93 173 -123
225 -85 146 -172 326 -188 394 -9 34 -18 69 -20 78 -11 38 22 6 40 -40z m7351
-397 c-10 -19 -19 -34 -22 -32 -2 3 4 21 13 41 10 19 19 34 22 32 2 -3 -4 -21
-13 -41z m-255 -426 c-41 -38 -88 -77 -105 -86 l-30 -16 28 28 c15 15 27 32
27 36 0 5 7 9 15 9 15 0 62 36 100 77 11 13 25 23 30 22 6 0 -24 -31 -65 -70z
m-6447 -11 c19 -29 37 -63 41 -74 4 -12 15 -29 26 -39 11 -10 20 -22 20 -27 0
-4 8 -16 18 -26 30 -32 67 -76 83 -102 9 -14 26 -36 38 -50 12 -14 31 -37 44
-52 12 -15 37 -44 55 -65 18 -20 41 -50 50 -65 9 -15 20 -28 24 -28 4 0 8 -4
8 -9 0 -5 12 -22 28 -38 15 -15 40 -44 55 -63 124 -156 600 -627 827 -820 47
-40 97 -83 112 -96 15 -13 32 -24 37 -24 5 0 11 -3 13 -8 2 -4 30 -29 63 -56
33 -28 87 -76 120 -107 273 -261 377 -348 485 -406 87 -47 105 -74 135 -198
20 -86 22 -224 4 -272 -15 -41 -25 -188 -11 -179 7 4 14 -9 20 -36 l10 -43 1
59 c2 106 31 186 68 186 55 0 89 170 80 394 -6 168 -1 237 19 229 8 -3 14 0
14 7 0 7 6 10 14 7 7 -3 22 0 32 8 22 14 73 25 269 55 77 12 172 27 210 35
l70 13 -25 -21 c-43 -37 -77 -90 -100 -152 -82 -227 -120 -349 -130 -410 -18
-113 -31 -158 -58 -195 -38 -52 -194 -203 -228 -220 -16 -8 -44 -32 -63 -53
-19 -21 -68 -66 -110 -101 -42 -35 -87 -73 -101 -86 -14 -12 -41 -34 -60 -49
-19 -14 -37 -28 -40 -31 -3 -3 -21 -17 -40 -30 -19 -13 -37 -27 -40 -30 -3 -3
-21 -17 -40 -30 -19 -13 -37 -27 -40 -30 -3 -4 -27 -22 -55 -40 -54 -37 -177
-130 -185 -141 -3 -4 -28 -22 -55 -40 -105 -70 -181 -134 -224 -185 -24 -30
-47 -54 -51 -54 -7 0 -147 133 -419 400 -112 110 -192 196 -251 270 -107 134
-182 225 -254 306 -45 49 -100 112 -123 140 -47 56 -77 89 -177 194 -93 99
-199 218 -209 236 -5 9 0 49 12 98 11 45 23 103 25 127 3 24 9 73 15 109 14
90 41 393 41 460 0 111 -41 364 -71 439 -15 38 -1 38 16 0 17 -40 33 -60 60
-75 11 -6 24 -20 30 -32 5 -12 15 -22 21 -22 12 0 114 -108 114 -121 0 -4 14
-23 31 -42 53 -60 136 -179 166 -237 15 -30 31 -57 35 -60 10 -8 45 -119 58
-185 6 -33 15 -76 20 -95 31 -126 62 -285 80 -410 37 -254 83 -409 123 -410
12 0 8 49 -7 73 -17 29 -46 170 -66 329 -5 40 -17 111 -26 158 -8 47 -22 121
-29 165 -7 44 -19 103 -25 130 -6 28 -13 70 -16 95 -7 74 -63 304 -105 435
-10 33 -35 112 -55 175 -20 63 -49 144 -66 180 -17 36 -45 106 -63 155 -64
174 -120 295 -167 359 -15 22 -28 45 -28 51 0 7 -9 20 -20 30 -11 10 -20 24
-20 32 0 7 -4 13 -10 13 -5 0 -10 4 -10 10 0 5 -13 31 -29 58 -60 101 -114
302 -82 302 5 0 25 -24 44 -52z m6342 12 c3 -5 -1 -10 -10 -10 -9 0 -13 5 -10
10 3 6 8 10 10 10 2 0 7 -4 10 -10z m-49 -42 c-4 -13 -8 -33 -10 -45 -6 -41
-34 -70 -118 -121 -46 -27 -84 -49 -86 -47 -8 7 13 33 44 54 31 22 62 56 133
149 28 37 46 42 37 10z m-249 -153 c-7 -14 -15 -25 -19 -25 -11 0 -10 7 4 30
18 28 28 25 15 -5z m3 -65 c0 -12 -65 -54 -100 -65 -14 -4 -41 -15 -60 -25
-19 -10 -51 -23 -70 -29 -59 -19 -21 8 98 70 111 58 132 66 132 49z m70 -105
c-14 -7 -27 -11 -30 -9 -6 7 22 24 40 23 9 0 5 -6 -10 -14z m-283 -752 c-15
-16 -17 -16 -17 -1 0 9 6 18 13 21 20 7 22 -2 4 -20z m-32 -64 c-9 -17 -19
-29 -22 -26 -5 5 25 57 33 57 3 0 -3 -14 -11 -31z m-35 -34 c19 -22 8 -25 -12
-3 -10 10 -14 18 -9 18 5 0 14 -7 21 -15z m-800 -271 c0 -7 -26 -34 -57 -60
-32 -26 -115 -106 -184 -178 -70 -72 -131 -134 -135 -138 -27 -21 -153 -149
-176 -178 -15 -19 -30 -31 -34 -27 -6 6 12 59 36 108 4 8 22 51 40 95 17 43
56 129 86 189 56 114 63 134 42 136 -22 1 42 18 147 39 151 29 235 34 235 14z
m-510 -26 c0 -13 -90 -98 -104 -98 -4 0 -2 -8 5 -17 12 -15 12 -16 -7 -11 -22
6 -62 -28 -48 -40 4 -4 9 -1 11 6 7 20 23 14 23 -9 0 -15 -5 -19 -15 -15 -8 3
-19 -2 -24 -12 -10 -16 -10 -16 -11 1 0 24 -14 21 -29 -6 -7 -12 -35 -38 -64
-57 -29 -19 -66 -48 -83 -65 -86 -85 -162 -148 -202 -169 -16 -8 -50 -31 -76
-51 -25 -19 -46 -31 -46 -26 0 10 125 165 175 217 20 20 52 57 73 83 20 25 43
52 50 59 6 7 12 16 12 20 0 4 11 20 25 36 19 22 22 32 14 43 -9 10 -8 13 1 13
12 0 76 27 167 72 70 34 153 48 153 26z m-605 -188 c0 -13 -17 -41 -40 -65
-43 -45 -69 -60 -111 -64 -9 0 -14 -6 -12 -13 3 -7 -9 -22 -26 -33 -17 -11
-35 -29 -40 -40 -9 -20 -127 -81 -143 -74 -4 2 -7 12 -6 21 3 19 -12 19 -119
2 -49 -7 -55 -3 -42 30 7 19 22 21 20 4 0 -7 4 -14 9 -14 6 -1 9 3 7 8 -5 18
20 38 46 38 23 0 24 3 19 36 -5 32 -4 36 13 31 16 -4 20 0 20 19 0 15 6 24 15
24 8 0 15 4 15 9 0 5 10 11 23 14 12 2 51 13 87 22 36 10 73 18 83 17 9 0 17
3 17 9 0 13 54 11 67 -2 8 -8 13 -5 18 11 6 19 12 21 43 16 21 -3 31 -3 25 0
-7 3 -13 10 -13 16 0 5 6 8 13 5 6 -2 12 -14 12 -27z m78 0 c-3 -10 -11 -25
-19 -31 -8 -6 -14 -17 -14 -24 0 -7 -17 -32 -39 -56 -21 -24 -47 -62 -59 -85
-52 -102 -182 -253 -232 -269 -24 -8 -54 14 -76 56 -16 32 -9 41 85 90 65 34
156 118 284 262 38 42 70 77 72 77 2 0 1 -9 -2 -20z m1117 -130 c0 -5 -4 -10
-10 -10 -5 0 -10 5 -10 10 0 6 5 10 10 10 6 0 10 -4 10 -10z m-5094 -92 c-4
-18 -10 -64 -13 -103 -6 -75 -16 -105 -35 -105 -20 0 -105 95 -112 126 -9 32
8 49 89 89 69 34 79 33 71 -7z m4568 -103 c-4 -8 -8 -15 -10 -15 -2 0 -4 7 -4
15 0 8 4 15 10 15 5 0 7 -7 4 -15z"/>
<path d="M2506 2685 c4 -8 8 -15 10 -15 2 0 4 7 4 15 0 8 -4 15 -10 15 -5 0
-7 -7 -4 -15z"/>
<path d="M3150 1109 c0 -5 5 -7 10 -4 6 3 10 8 10 11 0 2 -4 4 -10 4 -5 0 -10
-5 -10 -11z"/>
<path d="M4566 917 c-9 -13 -14 -32 -10 -41 5 -12 2 -15 -10 -10 -11 4 -16 0
-16 -14 0 -12 -5 -24 -10 -27 -6 -3 -7 -17 -4 -30 3 -12 1 -26 -5 -29 -6 -4
-11 -18 -11 -31 0 -13 -4 -27 -10 -30 -5 -3 -10 -15 -10 -26 0 -16 3 -18 19
-10 10 6 23 23 29 38 14 37 43 159 40 170 -1 4 4 19 11 31 17 32 6 40 -13 9z"/>
<path d="M6187 2124 c-4 -4 -7 -17 -7 -28 1 -19 1 -20 11 -3 11 19 8 43 -4 31z"/>
<path d="M5858 2023 c7 -3 16 -2 19 1 4 3 -2 6 -13 5 -11 0 -14 -3 -6 -6z"/>
<path d="M5622 6902 c-7 -5 -10 -16 -7 -24 4 -9 2 -19 -4 -23 -6 -3 -11 -16
-11 -28 0 -12 -7 -35 -15 -51 -8 -15 -15 -34 -15 -42 0 -8 -6 -11 -15 -8 -11
5 -13 2 -9 -10 3 -8 -3 -30 -14 -48 -11 -18 -23 -58 -27 -88 -4 -30 -11 -61
-16 -70 -5 -8 -15 -46 -23 -85 -8 -38 -22 -95 -30 -125 -9 -30 -24 -82 -33
-115 -8 -33 -22 -72 -29 -87 -8 -14 -17 -58 -20 -98 -4 -39 -11 -73 -15 -76
-16 -9 4 -34 27 -34 16 0 28 8 36 25 6 14 15 25 20 25 18 0 90 178 123 305 13
50 29 104 35 120 17 43 36 118 60 233 17 88 19 107 8 149 -7 26 -16 51 -21 54
-4 3 1 16 11 30 26 34 32 55 19 68 -13 13 -18 13 -35 3z"/>
<path d="M80 6735 c0 -8 4 -15 10 -15 5 0 7 7 4 15 -4 8 -8 15 -10 15 -2 0 -4
-7 -4 -15z"/>
<path d="M2 6398 c1 -46 3 -64 5 -40 2 23 8 42 14 42 5 0 9 18 9 40 0 29 -4
40 -15 40 -12 0 -15 -15 -13 -82z"/>
<path d="M1250 6415 c0 -8 5 -15 10 -15 6 0 10 7 10 15 0 8 -4 15 -10 15 -5 0
-10 -7 -10 -15z"/>
<path d="M7071 6384 c0 -11 3 -14 6 -6 3 7 2 16 -1 19 -3 4 -6 -2 -5 -13z"/>
<path d="M7040 6344 c0 -8 5 -12 10 -9 6 3 10 10 10 16 0 5 -4 9 -10 9 -5 0
-10 -7 -10 -16z"/>
<path d="M1361 6334 c0 -11 3 -14 6 -6 3 7 2 16 -1 19 -3 4 -6 -2 -5 -13z"/>
<path d="M7046 6294 c-9 -24 -7 -27 9 -10 17 17 19 26 6 26 -5 0 -12 -7 -15
-16z"/>
<path d="M1330 6285 c0 -8 7 -15 16 -15 14 0 14 3 4 15 -7 8 -14 15 -16 15 -2
0 -4 -7 -4 -15z"/>
<path d="M6964 6266 c-10 -8 -17 -16 -14 -19 3 -2 14 4 24 14 23 22 18 25 -10
5z"/>
<path d="M6978 6233 c7 -3 16 -2 19 1 4 3 -2 6 -13 5 -11 0 -14 -3 -6 -6z"/>
<path d="M6845 6155 c-42 -30 -80 -55 -84 -55 -4 0 -16 -8 -27 -17 -33 -30
-107 -79 -142 -94 -20 -9 -30 -19 -27 -27 3 -9 -7 -18 -25 -25 -16 -6 -30 -17
-30 -24 0 -7 1 -13 3 -13 10 0 112 41 116 47 3 5 27 18 53 31 26 13 51 29 55
35 8 13 151 129 177 144 16 10 31 53 18 53 -6 0 -44 -25 -87 -55z"/>
<path d="M5652 6128 c-14 -14 -16 -28 -3 -28 9 0 24 30 18 36 -2 2 -9 -2 -15
-8z"/>
<path d="M890 6095 c0 -8 5 -15 10 -15 6 0 10 7 10 15 0 8 -4 15 -10 15 -5 0
-10 -7 -10 -15z"/>
<path d="M3950 6065 c0 -8 4 -15 9 -15 5 0 11 7 15 15 3 9 0 15 -9 15 -8 0
-15 -7 -15 -15z"/>
<path d="M9621 6014 c0 -11 3 -14 6 -6 3 7 2 16 -1 19 -3 4 -6 -2 -5 -13z"/>
<path d="M3848 6003 c7 -3 16 -2 19 1 4 3 -2 6 -13 5 -11 0 -14 -3 -6 -6z"/>
<path d="M3840 5980 c0 -5 11 -10 24 -10 14 0 28 5 31 10 4 6 -7 10 -24 10
-17 0 -31 -4 -31 -10z"/>
<path d="M3470 5910 c20 -13 50 -13 50 0 0 6 -15 10 -32 10 -25 0 -29 -3 -18
-10z"/>
<path d="M9507 5853 c-11 -13 -17 -27 -14 -30 3 -2 13 7 23 21 22 34 15 42 -9
9z"/>
<path d="M6820 5615 c0 -8 5 -15 10 -15 6 0 10 7 10 15 0 8 -4 15 -10 15 -5 0
-10 -7 -10 -15z"/>
<path d="M1810 5509 c0 -5 5 -7 10 -4 6 3 10 8 10 11 0 2 -4 4 -10 4 -5 0 -10
-5 -10 -11z"/>
<path d="M2791 5303 c-1 -26 -11 -29 -29 -11 -8 8 -12 8 -12 1 0 -13 28 -25
40 -18 4 2 10 -18 14 -46 4 -27 11 -47 16 -44 4 3 4 17 -1 33 -5 15 -13 45
-18 67 -5 24 -9 31 -10 18z"/>
<path d="M2400 5285 c0 -10 7 -23 15 -29 8 -6 26 -42 40 -80 14 -38 29 -74 34
-80 14 -17 87 -151 124 -228 17 -38 37 -68 44 -68 7 0 13 -8 13 -17 0 -21 61
-216 71 -223 3 -3 9 -18 13 -35 16 -67 60 -202 78 -236 16 -31 48 -136 48
-158 0 -4 -14 -5 -31 -3 l-31 5 17 -32 c9 -18 23 -35 31 -38 7 -3 14 -9 14
-14 0 -5 17 -25 37 -44 37 -35 38 -35 57 -16 17 18 18 22 5 43 -8 13 -21 43
-28 68 -21 70 -57 151 -65 143 -4 -4 -4 0 -1 9 8 21 -95 347 -137 431 -10 20
-15 37 -11 37 9 -1 73 -83 73 -94 0 -14 37 -55 44 -49 3 4 -2 15 -11 25 -12
14 -14 21 -5 30 8 8 4 20 -16 47 -15 20 -29 38 -32 41 -3 3 -18 30 -34 60 -16
30 -35 62 -41 70 -7 8 -20 32 -29 53 -9 21 -30 60 -47 85 -18 26 -54 82 -81
125 -55 89 -158 200 -158 172z m505 -1115 c3 -5 1 -10 -4 -10 -6 0 -11 5 -11
10 0 6 2 10 4 10 3 0 8 -4 11 -10z"/>
<path d="M801 5264 c0 -11 3 -14 6 -6 3 7 2 16 -1 19 -3 4 -6 -2 -5 -13z"/>
<path d="M1120 5221 c0 -12 5 -21 10 -21 6 0 10 6 10 14 0 8 -4 18 -10 21 -5
3 -10 -3 -10 -14z"/>
<path d="M6822 5174 c1 -9 9 -19 16 -22 9 -3 13 2 10 14 -1 9 -9 19 -16 22 -9
3 -13 -2 -10 -14z"/>
<path d="M1113 5125 c0 -22 2 -30 4 -17 2 12 2 30 0 40 -3 9 -5 -1 -4 -23z"/>
<path d="M2831 5134 c0 -11 3 -14 6 -6 3 7 2 16 -1 19 -3 4 -6 -2 -5 -13z"/>
<path d="M6890 5110 c19 -13 30 -13 30 0 0 6 -10 10 -22 10 -19 0 -20 -2 -8
-10z"/>
<path d="M2851 4920 c0 -8 6 -26 15 -40 l15 -25 -7 25 c-3 14 -10 32 -15 40
-7 13 -8 13 -8 0z"/>
<path d="M9221 4834 c0 -11 3 -14 6 -6 3 7 2 16 -1 19 -3 4 -6 -2 -5 -13z"/>
<path d="M7268 4675 c-6 -30 -3 -43 8 -33 3 4 4 19 2 35 l-3 28 -7 -30z"/>
<path d="M7596 4626 c6 -15 35 -26 72 -26 15 0 22 6 22 20 0 17 -7 20 -50 20
-38 0 -48 -3 -44 -14z"/>
<path d="M7368 4623 c7 -3 16 -2 19 1 4 3 -2 6 -13 5 -11 0 -14 -3 -6 -6z"/>
<path d="M5820 4565 c-31 -40 -49 -95 -30 -95 26 0 80 81 80 120 0 30 -11 24
-50 -25z"/>
<path d="M2895 4560 c3 -5 8 -10 11 -10 2 0 4 5 4 10 0 6 -5 10 -11 10 -5 0
-7 -4 -4 -10z"/>
<path d="M2872 4540 c7 -10 14 -18 15 -16 6 6 -9 36 -18 36 -5 0 -4 -9 3 -20z"/>
<path d="M10062 4503 c-6 -32 -12 -105 -12 -160 0 -107 -21 -247 -45 -300 -8
-17 -15 -36 -15 -42 0 -6 -4 -19 -10 -29 -27 -47 -58 -144 -53 -163 4 -15 3
-20 -5 -15 -7 4 -10 2 -6 -7 8 -22 -39 -118 -55 -112 -9 3 -11 0 -7 -10 5 -14
-3 -25 -72 -102 -13 -14 -21 -31 -18 -39 3 -8 0 -11 -9 -8 -8 4 -23 -12 -40
-40 -15 -25 -31 -44 -36 -40 -5 3 -6 -3 -2 -12 4 -12 3 -15 -6 -10 -11 7 -51
-23 -51 -39 0 -5 -22 -31 -96 -111 -16 -18 -77 -77 -136 -133 -59 -55 -102
-101 -97 -101 5 0 9 -5 9 -11 0 -6 -6 -9 -14 -6 -7 3 -26 -7 -41 -23 -22 -23
-26 -34 -20 -58 6 -28 2 -34 -39 -64 -42 -31 -56 -48 -38 -48 4 0 25 17 47 38
23 20 75 62 116 93 91 68 301 279 295 296 -3 8 1 10 11 6 12 -5 15 -2 10 10
-4 10 -1 15 6 12 14 -4 115 113 166 193 46 72 93 169 123 251 13 36 30 67 37
69 11 4 12 -1 7 -19 -4 -13 -11 -73 -16 -133 -6 -61 -14 -112 -18 -115 -5 -3
-14 -37 -21 -76 -6 -38 -13 -74 -15 -80 -36 -129 -56 -213 -57 -237 -1 -19 -2
-20 -6 -4 -4 14 -7 16 -13 6 -5 -7 -3 -21 3 -31 14 -22 0 -39 -14 -19 -8 11
-9 8 -4 -14 5 -23 3 -27 -10 -22 -9 3 -13 2 -10 -4 8 -13 -16 -80 -27 -74 -4
3 -8 -3 -8 -13 0 -11 -5 -24 -11 -30 -7 -7 -8 -17 -3 -25 15 -23 13 -41 -7
-66 -10 -14 -19 -32 -19 -40 0 -19 57 42 66 70 3 10 10 18 15 18 5 0 9 4 9 9
0 5 16 38 37 73 56 98 78 145 112 248 18 52 39 109 47 127 8 17 14 40 14 51 0
11 9 48 19 83 11 35 23 84 27 109 7 42 8 441 2 471 -2 8 3 13 10 11 9 -2 12 4
7 17 -3 11 -1 22 5 26 11 7 13 393 1 434 -5 19 -9 12 -19 -36z m-85 -835 c-2
-13 -4 -5 -4 17 -1 22 1 32 4 23 2 -10 2 -28 0 -40z m-703 -689 c-3 -6 0 -15
7 -20 12 -7 11 -9 -1 -9 -8 0 -21 4 -29 9 -11 7 -10 11 5 20 24 13 27 13 18 0z
m46 7 c0 -2 -7 -6 -15 -10 -8 -3 -15 -1 -15 4 0 6 7 10 15 10 8 0 15 -2 15 -4z
m-60 -46 c0 -5 -7 -10 -16 -10 -8 0 -12 5 -9 10 3 6 10 10 16 10 5 0 9 -4 9
-10z"/>
<path d="M9511 3984 c0 -11 3 -14 6 -6 3 7 2 16 -1 19 -3 4 -6 -2 -5 -13z"/>
<path d="M2986 3971 c-4 -7 -5 -15 -2 -18 9 -9 19 4 14 18 -4 11 -6 11 -12 0z"/>
<path d="M9469 3947 c-7 -15 -16 -27 -21 -27 -4 0 -8 -11 -8 -24 0 -20 -23
-80 -49 -126 -5 -8 -27 -53 -49 -100 -82 -176 -95 -202 -121 -238 -15 -20 -39
-57 -53 -82 -14 -25 -36 -52 -47 -60 -12 -8 -21 -18 -21 -22 0 -4 -7 -16 -16
-25 -9 -10 -33 -43 -55 -73 -56 -79 -78 -106 -134 -162 -37 -37 -51 -46 -53
-33 -2 9 1 22 7 29 6 6 18 39 27 72 9 32 23 82 31 109 61 204 106 427 101 500
-3 51 -22 72 -31 33 -31 -134 -100 -392 -112 -414 -8 -16 -15 -35 -15 -41 0
-21 -50 -164 -81 -232 -16 -35 -29 -71 -29 -80 0 -10 -4 -21 -8 -26 -5 -6 -15
-36 -22 -67 -7 -32 -16 -58 -20 -58 -3 0 -17 -19 -30 -42 -44 -79 -141 -218
-160 -231 -11 -6 -20 -16 -20 -21 0 -5 -11 -24 -25 -42 -14 -18 -25 -37 -25
-43 0 -5 -6 -14 -12 -18 -13 -8 -48 -65 -48 -77 0 -13 58 -5 64 9 7 18 26 20
26 2 0 -7 -9 -32 -20 -55 -23 -47 -25 -69 -8 -74 6 -2 8 -10 4 -17 -6 -9 -11
-8 -20 4 -18 26 -64 -75 -65 -145 -2 -65 32 -143 64 -148 20 -4 20 -4 0 11
-11 9 -17 19 -12 23 4 4 7 2 7 -4 0 -7 5 -12 10 -12 6 0 10 9 10 20 0 28 20
25 21 -2 1 -19 2 -18 10 7 5 19 5 31 -1 33 -10 4 -5 41 10 77 4 11 11 28 14
38 3 10 10 16 15 12 6 -3 17 12 26 32 80 182 212 413 237 413 6 0 9 2 6 6 -9
8 30 103 56 138 13 17 35 54 49 82 15 29 53 87 85 130 33 44 74 104 92 134 18
30 41 64 50 75 24 28 160 254 160 265 0 6 4 10 9 10 10 0 132 244 171 340 12
30 29 70 36 89 21 47 28 115 16 137 -10 17 -11 16 -23 -9z m-1066 -1792 c-3
-9 -8 -14 -10 -11 -3 3 -2 9 2 15 9 16 15 13 8 -4z m-13 -165 c0 -5 -4 -10
-10 -10 -5 0 -10 5 -10 10 0 6 5 10 10 10 6 0 10 -4 10 -10z"/>
<path d="M7837 3763 c-11 -11 -8 -25 4 -17 6 3 15 0 20 -7 6 -11 11 -11 21 -1
9 9 9 12 -5 12 -9 0 -17 5 -17 10 0 11 -13 13 -23 3z"/>
<path d="M7783 3711 c-36 -30 -41 -41 -18 -41 8 0 14 4 13 9 -2 4 8 18 22 29
14 11 23 22 20 25 -3 3 -20 -7 -37 -22z"/>
<path d="M7680 3600 c0 -5 5 -10 11 -10 5 0 7 5 4 10 -3 6 -8 10 -11 10 -2 0
-4 -4 -4 -10z"/>
<path d="M5137 3479 c-17 -10 -17 -12 8 -25 15 -8 31 -12 35 -9 4 3 23 -1 41
-9 34 -13 59 -12 59 4 0 9 -92 50 -112 50 -7 0 -21 -5 -31 -11z"/>
<path d="M10219 3435 c-21 -63 -156 -315 -196 -365 -6 -8 -35 -46 -64 -85 -69
-92 -194 -212 -227 -220 -15 -3 -32 -17 -39 -30 -11 -26 0 -35 14 -12 4 7 29
24 56 36 26 13 47 30 47 38 0 8 6 13 12 11 7 -3 24 6 38 19 16 15 33 22 48 20
17 -3 32 7 65 47 23 28 49 58 57 67 37 40 50 61 45 70 -4 5 -1 8 5 7 11 -3 57
71 126 202 33 63 35 70 32 155 l-3 90 -16 -50z"/>
<path d="M8581 3413 c0 -25 1 -26 9 -8 12 27 12 35 0 35 -5 0 -10 -12 -9 -27z"/>
<path d="M8546 3283 c-6 -14 -5 -15 5 -6 7 7 10 15 7 18 -3 3 -9 -2 -12 -12z"/>
<path d="M1130 3210 c0 -5 5 -10 10 -10 6 0 10 5 10 10 0 6 -4 10 -10 10 -5 0
-10 -4 -10 -10z"/>
<path d="M9146 2906 c-33 -29 -37 -36 -27 -52 11 -18 12 -18 9 1 -4 26 51 67
70 52 13 -11 15 -6 6 17 -9 22 -15 20 -58 -18z"/>
<path d="M9710 2865 c0 -8 2 -15 4 -15 2 0 6 7 10 15 3 8 1 15 -4 15 -6 0 -10
-7 -10 -15z"/>
<path d="M9087 2853 c-4 -3 -7 -11 -7 -17 0 -6 5 -5 12 2 6 6 9 14 7 17 -3 3
-9 2 -12 -2z"/>
<path d="M9115 2800 c-3 -6 1 -7 9 -4 18 7 21 14 7 14 -6 0 -13 -4 -16 -10z"/>
<path d="M9075 2780 c-3 -5 1 -10 9 -10 9 0 16 5 16 10 0 6 -4 10 -9 10 -6 0
-13 -4 -16 -10z"/>
<path d="M9638 2729 c-17 -18 -17 -19 4 -19 12 0 18 3 15 7 -4 3 -2 12 4 20
18 20 -4 14 -23 -8z"/>
<path d="M8482 2025 c0 -16 2 -22 5 -12 2 9 2 23 0 30 -3 6 -5 -1 -5 -18z"/>
<path d="M7142 1650 c0 -14 2 -19 5 -12 2 6 2 18 0 25 -3 6 -5 1 -5 -13z"/>
<path d="M7170 1650 c0 -5 5 -10 10 -10 6 0 10 5 10 10 0 6 -4 10 -10 10 -5 0
-10 -4 -10 -10z"/>
<path d="M7210 1645 c0 -8 2 -15 4 -15 2 0 6 7 10 15 3 8 1 15 -4 15 -6 0 -10
-7 -10 -15z"/>
<path d="M6736 691 c-24 -50 -27 -61 -16 -81 l12 -23 14 33 c8 18 23 48 34 65
19 31 19 33 2 48 -17 16 -20 14 -46 -42z"/>
<path d="M6796 643 c-21 -61 -20 -102 3 -132 17 -22 21 -23 49 -12 16 7 40 23
53 37 18 20 20 28 12 46 -14 29 -82 108 -93 108 -4 0 -15 -21 -24 -47z"/>
<path d="M6882 498 c-23 -16 -42 -31 -42 -34 0 -3 14 -25 30 -50 35 -50 61
-56 98 -21 16 14 23 17 20 7 -2 -8 -19 -25 -36 -36 l-32 -22 71 -88 71 -89 -5
-71 c-2 -39 -7 -77 -11 -83 -5 -8 12 -11 54 -11 34 0 59 4 56 9 -10 16 42 68
89 90 47 22 91 28 80 11 -3 -5 -3 -32 1 -60 l7 -50 48 0 c56 0 63 14 24 50
-14 13 -25 31 -25 40 0 9 -10 22 -22 29 -19 9 -10 11 52 7 56 -3 99 -13 169
-40 56 -22 124 -41 170 -46 42 -5 102 -16 134 -25 76 -20 164 -21 148 -1 -12
14 -74 39 -124 50 -15 4 -26 10 -23 15 6 10 -115 45 -225 65 -47 9 -113 29
-147 46 -34 16 -66 30 -71 30 -4 0 -23 8 -42 17 -25 13 -58 18 -122 18 -54 0
-91 5 -95 12 -13 20 -96 117 -138 161 -23 24 -51 42 -63 42 -13 0 -28 11 -39
29 l-17 29 -43 -30z m338 -262 c0 -3 -4 -8 -10 -11 -5 -3 -10 -1 -10 4 0 6 5
11 10 11 6 0 10 -2 10 -4z"/>
</g>
</svg>
