<?xml version="1.0" encoding="UTF-8"?>
<svg xmlns="http://www.w3.org/2000/svg" xmlns:xlink="http://www.w3.org/1999/xlink" width="32pt" height="32pt" viewBox="0 0 32 32" version="1.1">
<g id="surface1">
<path style=" stroke:none;fill-rule:nonzero;fill:rgb(0%,0%,0%);fill-opacity:1;" d="M 26.550781 19.371094 C 26.277344 18.523438 25.976562 17.6875 25.652344 16.855469 L 24.4375 13.863281 C 24.4375 13.828125 24.453125 13.238281 24.453125 12.933594 C 24.453125 7.8125 22.007812 2.667969 16 2.667969 C 9.992188 2.667969 7.546875 7.8125 7.546875 12.933594 C 7.546875 13.238281 7.5625 13.828125 7.5625 13.863281 L 6.347656 16.855469 C 6.019531 17.714844 5.6875 18.605469 5.449219 19.371094 C 4.300781 23.019531 4.675781 24.53125 4.957031 24.566406 C 5.5625 24.636719 7.320312 21.820312 7.320312 21.820312 C 7.320312 23.449219 8.167969 25.582031 10.007812 27.121094 C 9.320312 27.328125 8.476562 27.652344 7.933594 28.046875 C 7.449219 28.402344 7.507812 28.765625 7.597656 28.914062 C 7.984375 29.554688 14.203125 29.324219 16 29.121094 C 17.796875 29.324219 24.019531 29.554688 24.402344 28.910156 C 24.492188 28.765625 24.554688 28.402344 24.066406 28.046875 C 23.523438 27.652344 22.679688 27.328125 21.992188 27.117188 C 23.832031 25.582031 24.679688 23.449219 24.679688 21.816406 C 24.679688 21.816406 26.4375 24.636719 27.042969 24.5625 C 27.324219 24.53125 27.695312 23.019531 26.550781 19.371094 "/>
</g>
</svg>
