<?xml version="1.0" encoding="UTF-8"?>
<svg xmlns="http://www.w3.org/2000/svg" xmlns:xlink="http://www.w3.org/1999/xlink" width="32pt" height="32pt" viewBox="0 0 32 32" version="1.1">
<g id="surface1">
<path style=" stroke:none;fill-rule:nonzero;fill:rgb(0%,0%,0%);fill-opacity:1;" d="M 31.9375 6.09375 C 30.757812 6.609375 29.5 6.964844 28.171875 7.125 C 29.523438 6.3125 30.5625 5.027344 31.054688 3.496094 C 29.789062 4.234375 28.382812 4.773438 26.886719 5.074219 C 25.691406 3.792969 23.988281 2.996094 22.097656 2.996094 C 18.476562 2.996094 15.539062 5.933594 15.539062 9.550781 C 15.539062 10.070312 15.597656 10.570312 15.707031 11.050781 C 10.253906 10.792969 5.421875 8.171875 2.1875 4.214844 C 1.617188 5.175781 1.296875 6.296875 1.296875 7.515625 C 1.296875 9.792969 2.457031 11.796875 4.214844 12.976562 C 3.140625 12.941406 2.128906 12.644531 1.246094 12.15625 L 1.246094 12.234375 C 1.246094 15.414062 3.503906 18.066406 6.507812 18.671875 C 5.957031 18.820312 5.375 18.898438 4.777344 18.898438 C 4.359375 18.898438 3.957031 18.859375 3.558594 18.785156 C 4.398438 21.390625 6.816406 23.289062 9.695312 23.339844 C 7.457031 25.101562 4.617188 26.148438 1.558594 26.148438 C 1.039062 26.148438 0.519531 26.117188 0 26.058594 C 2.917969 27.917969 6.355469 29.003906 10.074219 29.003906 C 22.148438 29.003906 28.742188 19.007812 28.742188 10.355469 C 28.742188 10.078125 28.742188 9.796875 28.722656 9.515625 C 30.003906 8.597656 31.121094 7.4375 32 6.117188 Z M 31.9375 6.09375 "/>
</g>
</svg>
