<?xml version="1.0" encoding="UTF-8"?>
<svg xmlns="http://www.w3.org/2000/svg" xmlns:xlink="http://www.w3.org/1999/xlink" width="32pt" height="32pt" viewBox="0 0 32 32" version="1.1">
<g id="surface1">
<path style=" stroke:none;fill-rule:nonzero;fill:rgb(0%,0%,0%);fill-opacity:1;" d="M 13.464844 27.097656 C 8.160156 27.617188 3.578125 25.222656 3.234375 21.738281 C 2.890625 18.257812 6.914062 15.007812 12.222656 14.484375 C 17.527344 13.957031 22.105469 16.355469 22.449219 19.839844 C 22.792969 23.308594 18.769531 26.570312 13.464844 27.09375 Z M 12.066406 22.957031 C 11.554688 23.78125 10.457031 24.136719 9.628906 23.761719 C 8.8125 23.390625 8.570312 22.441406 9.085938 21.636719 C 9.59375 20.84375 10.65625 20.488281 11.476562 20.835938 C 12.308594 21.1875 12.570312 22.132812 12.066406 22.957031 Z M 13.761719 20.789062 C 13.570312 21.105469 13.160156 21.261719 12.839844 21.125 C 12.527344 21.007812 12.425781 20.644531 12.605469 20.34375 C 12.789062 20.042969 13.1875 19.882812 13.5 20.023438 C 13.820312 20.144531 13.921875 20.503906 13.742188 20.828125 Z M 13.996094 17.164062 C 11.46875 16.507812 8.617188 17.765625 7.519531 19.988281 C 6.402344 22.261719 7.484375 24.777344 10.035156 25.601562 C 12.675781 26.453125 15.789062 25.148438 16.875 22.695312 C 17.941406 20.304688 16.609375 17.839844 13.996094 17.164062 Z M 24.078125 15.53125 C 23.617188 15.390625 23.320312 15.292969 23.539062 14.710938 C 24.039062 13.410156 24.097656 12.308594 23.539062 11.507812 C 22.496094 10.023438 19.652344 10.101562 16.386719 11.464844 C 16.386719 11.464844 15.367188 11.90625 15.625 11.105469 C 16.125 9.484375 16.046875 8.140625 15.265625 7.359375 C 13.480469 5.578125 8.773438 7.421875 4.746094 11.464844 C 1.746094 14.492188 0 17.699219 0 20.464844 C 0 25.773438 6.796875 28.992188 13.449219 28.992188 C 22.164062 28.992188 27.964844 23.921875 27.964844 19.898438 C 27.964844 17.46875 25.902344 16.09375 24.078125 15.519531 Z M 26.621094 8.742188 C 25.601562 7.601562 24.078125 7.160156 22.675781 7.460938 C 22.09375 7.578125 21.734375 8.140625 21.855469 8.703125 C 21.976562 9.261719 22.535156 9.625 23.097656 9.503906 C 23.777344 9.367188 24.519531 9.5625 25.019531 10.125 C 25.519531 10.6875 25.640625 11.429688 25.441406 12.089844 C 25.261719 12.628906 25.558594 13.230469 26.121094 13.410156 C 26.660156 13.570312 27.265625 13.273438 27.445312 12.730469 C 27.882812 11.367188 27.605469 9.824219 26.582031 8.683594 Z M 29.847656 5.816406 C 27.746094 3.472656 24.640625 2.589844 21.773438 3.191406 C 21.113281 3.332031 20.691406 3.976562 20.832031 4.632812 C 20.972656 5.292969 21.613281 5.71875 22.277344 5.574219 C 24.320312 5.132812 26.523438 5.777344 28.003906 7.421875 C 29.488281 9.082031 29.910156 11.34375 29.265625 13.308594 C 29.046875 13.949219 29.40625 14.652344 30.046875 14.851562 C 30.6875 15.070312 31.371094 14.710938 31.589844 14.070312 C 32.492188 11.285156 31.910156 8.097656 29.808594 5.757812 Z M 29.847656 5.816406 "/>
</g>
</svg>
